<svg xmlns="http://www.w3.org/2000/svg" viewBox="0 0 2604.33 1649.57"><defs><style>.cls-1{fill:#fff;}.cls-2{fill:#343434;}.cls-3{fill:#3d3d3d;}.cls-4{fill:#2f2f2f;}.cls-5{fill:#2c2c2c;}.cls-6{fill:#262626;}.cls-7{fill:#676767;}.cls-8{fill:#232323;}.cls-9{fill:#505050;}.cls-10{fill:#919191;}.cls-11{fill:#404040;}.cls-12{fill:#323232;}.cls-13{fill:#2b2b2b;}.cls-14{fill:#858585;}.cls-15{fill:#484848;}.cls-16{fill:#454545;}</style></defs><g id="Capa_2" data-name="Capa 2"><g id="Layer_1" data-name="Layer 1"><path class="cls-1" d="M674.85,1092.8c-2.4.21-4.77.48-7.14.78,7.32,2.52,14.49,5.58,22,7.71C685.32,1097.48,679.83,1095.5,674.85,1092.8Z"/><path class="cls-1" d="M643.2,1319a69.76,69.76,0,0,0,22.08,3.45C658.38,1319.15,650.67,1319.12,643.2,1319Z"/><path class="cls-1" d="M650.1,1306.13c3.33-2.49,6.66-5,9.75-7.83-6.48-.45-13-.57-19.44-.66C643.62,1300.49,646.86,1303.28,650.1,1306.13Z"/><path class="cls-1" d="M670.65,1159.52c5.52,5.73,13.41,5.61,20.76,6A124.58,124.58,0,0,0,670.65,1159.52Z"/><path class="cls-1" d="M694.44,1081c-8.16-1-16.41-2.13-24.57-.75a49.39,49.39,0,0,0,12.51,8Q688.32,1084.52,694.44,1081Z"/><path class="cls-1" d="M367.65,1358.27c-10.53-.42-21.39,0-31.41-3.9,18.33-1.47,36.45-4.62,54.78-6.18,2.19-1,4.38-2,6.54-3.12-21,2.37-42.21.57-63.18,3.3-17.19,3.06-33.06-6-50-6.84-1.56,19,1.23,38.7-4.41,57.15a338.53,338.53,0,0,1,81.72-.3c11.79.18,24.24,4.5,35.49-.63,20.7-8.19,42.57-12.9,64.68-15.36a225.06,225.06,0,0,1-3.69-23.64C428.1,1361.78,397.8,1359.53,367.65,1358.27Z"/><path class="cls-1" d="M459.81,947.24c5.85-1.47,11.79-3.12,16.83-6.57A23.28,23.28,0,0,0,459.81,947.24Z"/><path class="cls-1" d="M678.42,1153.64c10.35.27,20.7.24,31.05.6-13-1.11-25.92-2.85-38.28-7C673.62,1149.32,676,1151.45,678.42,1153.64Z"/><path class="cls-1" d="M245.07,655.67c12.93-4.65,23-14.94,26.19-28.41-11,7.32-20.31,16.86-30.81,24.81C242,653.27,243.51,654.47,245.07,655.67Z"/><path class="cls-1" d="M445.74,913.07c-15.45,1.59-31.08-.63-46.56,1.29l.24,4.68c13.83,6.15,20.7,20.64,33.69,28.05-11.52-3.54-22,4.83-33.51,1.86A121,121,0,0,0,414,965.36c10.59-2.88,21.42-5,31.74-8.91l-13.29.18c5.7-5.91,13.65-8.79,20.31-13.38-6.84.15-13.77,1-20.55-.51,5.43-2.7,11-5,16.53-7.41-6.9-1.83-17.67-.42-19-9.72,1.53.87,4.62,2.58,6.15,3.45,5.16-1.32,10.32-2.58,15.45-3.9-4.83-2.13-9.72-4.17-14.49-6.45,10.95-.69,22-.75,32.82-2.52,1-1.35,2.94-4.05,3.9-5.4-7.92,0-15.87.18-23.79.15,10.95-8.55,24.78-11.43,37.68-15.6C477,896.6,466.2,898,456.69,902.72,452.85,906,449.67,909.89,445.74,913.07Z"/><path class="cls-1" d="M978.3,1322.36c8.67-20.88,20.82-40.08,29-61.17,10.86-23.55,17.46-48.72,27.39-72.63,16.14-41.79,25.77-85.65,36.78-129-13.32,29-25.29,58.68-40.41,86.85-19.29,41.34-43.11,80.28-65.1,120.18-22.14,37.23-50.91,69.87-79.83,101.88C902,1357.4,916.92,1345,929.28,1330c16.47-17,26.67-39,43.47-55.74,9.12-9.24,16.32-20.07,24.93-29.73-2.46,7.44-5,14.94-8.67,21.93-6,11.46-16.32,19.62-24,29.88-20.28,26.64-38.34,55.71-64.92,76.83-18.45,14.28-38.76,25.92-58,39.15,24-10.5,50.46-6.48,75.54-3.75.48-16.53,16.14-26.37,27.33-36.18C962,1360.43,969.81,1340.48,978.3,1322.36Z"/><path class="cls-1" d="M1090.17,1089.08c-7.08,16.2-11.4,34.11-21.72,48.6-6.93,22-13.86,44.13-22.5,65.58-12.39,29.73-21.57,60.93-36.93,89.37-13.29,23.1-23.91,47.67-37.74,70.47-8.73,14.46-24.3,22.59-34.38,35.91,17.19-1.2,34.44,1.38,51.6.15,10.44-5,19.14-13,27.54-20.82-13.53,7.08-27.51,14.31-42.93,16,15.87-10.59,31.56-21.6,44.43-35.88,9.12-11.76,26.88-13.65,31.62-29.1-18.06,11-34.74,24.93-55.05,31.71,15.48-14.22,31.77-27.93,43.62-45.54,12.12-18.54,24.18-37.17,38.73-53.94.69-5.58,1.44-11.13,2-16.68-12.72,18.33-23.13,40-42,52.77,24.45-31.23,36.45-69.54,46.14-107.4,2.49-12,8.82-23,9.72-35.37-10.74,21.24-14.91,46.71-31.77,64.32C1078.41,1178.18,1087.41,1133.6,1090.17,1089.08Z"/><path class="cls-1" d="M2011.23,873.56c-9.66,4-19.92,5.85-30.09,7.71,8.28.36,16.59-.21,24.93-.42C2007.75,878.42,2009.46,876,2011.23,873.56Z"/><path class="cls-1" d="M663.9,1143.53c1.65-4-4.8-6.48-7.56-4.53C655.32,1142.57,661.14,1146.35,663.9,1143.53Z"/><path class="cls-1" d="M784.83,1380.83c-16.17-.21-32.22,3.66-48.36,1.65-20.94-2.55-42.12-4.11-63.12-1.86-33.15,3.45-66.54,1.17-99.66,4.38,14.13,2.16,28.41-.33,42.6.81,38,3.27,76.26,4,114.27,7.38,31.35-2.46,61.65,6.69,92.58,9.78,5.43-5.61,11.1-11,16.77-16.32C821.4,1386,803.4,1380.26,784.83,1380.83Z"/><path class="cls-1" d="M623,881.36c-10.23-2-20.43-4.08-30.24-7.65C598.5,885.26,612.75,880.37,623,881.36Z"/><path class="cls-1" d="M658.59,1361.42c20.1,0,40.23-2.49,60.3.21a136.18,136.18,0,0,1,4-28.47c-27.63-4.2-56.49-7.23-83.7,1.11-10.89,3.33-22.32,4.11-33.66,4,15.72,6.57,33.6,7.62,48.27,16.44-19.47-1-39.06-1.59-58.47.63-14.1,1.53-27.78-3.15-41.73-4.11-11.13,2-22.38,4-33.57,1.17,1,5.13,1.89,10.35,2.67,15.6C568,1365.71,613.2,1360.79,658.59,1361.42Z"/><path class="cls-1" d="M640.38,1222.61a55.84,55.84,0,0,0,14.85,6.9C651.57,1224.47,646.77,1221.11,640.38,1222.61Z"/><path class="cls-1" d="M599.7,961.28c3.9,9.3,15.6,12.33,24.54,14.58-5.94-7.47-15.87-9.21-22.89-15.27-3.93-3.24-7.68-6.75-12-9.51A80.87,80.87,0,0,0,599.7,961.28Z"/><path class="cls-1" d="M461,844a37.38,37.38,0,0,0,11.88,5.79c-.87-6.42,5-10.08,8.19-14.67C474.51,838.37,467.79,841.25,461,844Z"/><path class="cls-1" d="M854.91,1106.54c-1.2.36-3.6,1.11-4.83,1.47,1.35.9,4,2.64,5.43,3.54C855.36,1110.29,855.06,1107.77,854.91,1106.54Z"/><path class="cls-1" d="M827,1151.48c-4.23-.9-9.51.54-12,4.2C816.9,1159.88,833.52,1156.64,827,1151.48Z"/><path class="cls-1" d="M1748.76,1111.58c1.35-.9,4-2.64,5.37-3.51l-4.83-1.53C1749.18,1107.8,1748.91,1110.32,1748.76,1111.58Z"/><path class="cls-1" d="M1990.59,966.74A123.78,123.78,0,0,0,1979.13,977C1984.47,975.26,1991.52,974.18,1990.59,966.74Z"/><path class="cls-1" d="M792.42,1247.18c-3.63.12-7.23.3-10.83.57,3.51.6,7,1.14,10.56,1.62C792.21,1248.83,792.33,1247.75,792.42,1247.18Z"/><path class="cls-1" d="M2131.41,849.77a29.67,29.67,0,0,0,11.73-5.88c-6.78-2.67-13.47-5.55-19.95-8.82C2126.4,839.66,2132.19,843.35,2131.41,849.77Z"/><path class="cls-1" d="M439.56,999a146.87,146.87,0,0,0-28.11-1.68c5.46-5,12.66-6.66,19.68-8l-5.61-2.61c-.15-3.69-.3-7.38-.51-11,2.37-2.1,4.74-4.14,7.14-6.21-8.34.51-18.18-3.57-25,3.06-5.76-2.55-11.43-5.28-17.07-8-.63,6.63-1.56,13.23-1.65,19.92,7.41,8,15.51,15.57,20.67,25.38C419.31,1006.37,429.6,1003.13,439.56,999Z"/><path class="cls-1" d="M443.7,1036.7c-14.91,4.77-29,11.88-44.19,15.72,2,2.58,3.84,5.58,6.81,7.26C419,1052.42,432.42,1046.12,443.7,1036.7Z"/><path class="cls-1" d="M392.07,1020.77c.12,2.28.3,6.81.42,9.09,3.42-1.35,6.87-2.67,10.32-4C399.21,1024.16,395.64,1022.48,392.07,1020.77Z"/><path class="cls-1" d="M440.16,1009.73a211.43,211.43,0,0,0-28.08,4.23C418.05,1027.4,432.48,1015.19,440.16,1009.73Z"/><path class="cls-1" d="M403.08,966.65c2.85.42,4.23-.75,4.11-3.48-3.15-2.34-7.14-6-11.28-4.92C396.3,962,400.53,964.22,403.08,966.65Z"/><path class="cls-1" d="M2227.14,1585.22c-16.77,19.32-31,40.77-41.07,64.35C2201.25,1629.08,2215.59,1608,2227.14,1585.22Z"/><path class="cls-1" d="M403,1091.9a58.09,58.09,0,0,1-20.58-3.84q4.81,5.31,9.54,10.77C395.64,1096.52,399.33,1094.18,403,1091.9Z"/><path class="cls-1" d="M1871,1382.18c-18.15,2.7-36.18-1.89-54.33-1.35-14.4-.21-28.38,3.54-42.6,5.19,4.74,5.73,10.29,10.71,15.81,15.69,13.95-1.41,27.75-3.93,41.52-6.57,18.9-3.54,38.22-.72,57.27-2.73,28.77-3.54,57.87-2.88,86.73-5.58,20.91-2.52,42.06-.06,62.88-3.48-33.84-1-67.77.66-101.55-2.25A269.23,269.23,0,0,0,1871,1382.18Z"/><path class="cls-1" d="M2011.92,1355.54c-20.37-2.25-40.92-2-61.32-.78,14.52-9.69,33.63-8.55,48.36-17.94-13.92,3.48-27.9-1-41.28-4.56-16-4.11-32.61-2.49-48.87-3.69,8.82-4.35,19.62-2.28,27.6-8.61a58.21,58.21,0,0,1-38.88-11c-6.9,1.65-13.8,3.3-20.7,4.8,3.48,15.81,8.49,31.5,8.52,47.88,21-2.88,42.18,0,63.27-.21,44.4-.48,88.62,4.2,132.93,6.6.75-5.16,1.74-10.23,2.79-15.33C2060.34,1345.19,2036.07,1355.84,2011.92,1355.54Z"/><path class="cls-1" d="M1831.11,1316c-6.69-2.28-13.5-4.71-20.67-4.26-13.38.18-25.89-5.16-39-6.54-9.84-1.35-20-1.5-29.25-5.58-8.58-.66-18.69,2.49-25.71-4,14.16,1,27.75-4.14,40.86-8.88-18.09-3.87-36.66-4.68-55.11-3.81,6.09,11.91,13.89,22.83,22.23,33.27,14.73,18.93,22.47,42.54,39.36,59.94,19.44-6.93,40.08-9.06,60.57-9.66A329.16,329.16,0,0,0,1831.11,1316Z"/><path class="cls-1" d="M2209.32,957.17c-6.15,2.88-12.24,6.24-16.77,11.4-6.66.42-13.32.69-20,1l6.69,6.33c-.24,3.63-.42,7.26-.51,10.92-1.38.63-4.14,1.92-5.52,2.58,7,1.32,14.13,3.06,19.62,8a146.2,146.2,0,0,0-28.29,1.71c10,4,20.37,7.32,30.6,10.86,6.48-12.42,17.13-21.57,27.57-30.57,7.32-6.12,9.84-15.66,12.84-24.33-14.52,4.89-27.27,14-42,18.12C2198.52,967.55,2204.16,962.57,2209.32,957.17Z"/><path class="cls-1" d="M1563.09,1207.7a413.4,413.4,0,0,1,49.74,43.56c13.23,13.83,29.4,24.39,42.3,38.55,20,24.06,45.72,42.24,68.7,63.24a182.74,182.74,0,0,0-21.66-32.82c-13.35-16.35-20.49-36.57-32.31-53.88-11.16-16.74-18.51-35.55-28.8-52.77-9.45-18.33-14.55-38.58-24-56.91-10.2-19-17.31-39.39-27.93-58.11-14-25.65-22.89-53.61-33.15-80.85-4.62-14-17.37-23.16-30.57-28.14-16.62-4.44-33.09-10.92-50.55-10.5-50.19-1.89-98.07-18.6-144.69-35.91-31.5-12.12-61.53-27.42-90.78-44.13-29.88-17.79-61.92-31.56-91.95-49.08,10.14,25.71,23,50.22,36,74.61,19.86,41.52,46.74,79.11,71,118.14,13.71,20,29.43,38.46,42.78,58.71,13.62,21.06,31.59,38.7,46.59,58.71,14.64,19.38,31.35,37.29,44.19,58,10.74,17.07,23.55,32.73,34.77,49.47,14.16,21.36,34.65,37.44,48.51,59,20.94,19.89,42.93,42.39,72.48,48,43.26,11.1,87.6,16.92,132.09,20-17.7-3.57-34.14-11.07-51-17.13-18.6-7.08-36.66-16.29-51.81-29.31-32.49-28.74-64.92-57.66-99.78-83.52-9.78-7.59-20.46-14.28-28.5-23.85,28.77,17.88,58.17,34.74,87.06,52.47,24.06,14.46,45.24,33.27,69.51,47.46,15.78,9.27,33.3,14.79,50.34,21.3-14.58-9-24.72-23-36.39-35.13-7.83-8.67-16.89-16.2-24.18-25.32,18.12,8.4,32.64,22.8,50,32.61,18.66,10,37.32,20.1,54.24,32.88a115.33,115.33,0,0,0,26,13.83c-24.24-24.12-53-43.8-73.92-71.16-13.77-17.37-33.54-28.44-47.94-45.21-14.76-17.19-34.32-29.61-47.55-48.09-20.19-25.62-44.58-47.49-68-70a42.56,42.56,0,0,1,9.72,5.31C1517.22,1169.75,1540.05,1188.89,1563.09,1207.7Zm-69.21-5.4c16.23,14.49,33.66,28.14,46.89,45.57-22-14.46-43.8-29.31-67.68-40.53-21.78-9.57-37.23-28.38-56.22-42.06-19.17-13.83-32.85-33.39-50.07-49.29-14.52-13.47-27-29-42-41.94-5.73-5.88-14-10.14-16.11-18.66,30.45,18.24,57.39,41.82,83.58,65.64C1421.37,1153.76,1461.84,1172.9,1493.88,1202.3Zm-86.52-141.39c-23.1-12.09-43.89-27.78-64.77-43.26-32.13-19.53-63.3-40.56-94.92-60.9-13.38-8.37-23.4-20.82-34.17-32.1-8.25-9.51-17.43-18.84-21.6-31a227.27,227.27,0,0,0,52.83,41.25c35.37,17.61,66.12,42.81,100.38,62.28,24.81,16.23,48.87,33.72,75.42,47.1,32,23.79,68.94,40.14,99.93,65.34,18.72,14.22,38,27.84,54.69,44.52,7.41,7.56,16.77,14.25,20.19,24.75-11.16-5.37-19-15-27.9-23.28-20-19-43.71-33.45-67.71-46.8C1467.93,1095,1435.47,1081.67,1407.36,1060.91Z"/><path class="cls-1" d="M1245.39,1246.64c-11.76-26.34-26.31-51.45-35.46-78.9-.93-5.28-7.44-4.23-10.59-7.35-13.86-11.76-25-26.31-36-40.65,2.1,17.79,11.88,33,18.48,49.26a303.77,303.77,0,0,0,45.39,68.52c-18.87-10.83-31.11-29.76-45.63-45.42,10.41,42.54,40.89,76,70.86,106.32-17.94-10.05-31.83-25.56-47.49-38.61,11.4,22.56,25.17,44.28,44.28,61.11,8.82,9.21,20.31,15.6,28.32,25.62-20.7-10.08-39.3-23.82-57.75-37.38,1.38,3.81,2.49,7.77,4.56,11.37,14.61,18.66,35,31.77,56.49,41.22-14,.09-27.18-4.86-39.81-10.29,6,7.5,10.89,16,18,22.56,9,4.8,19.83,2.49,29.64,3,18.42-1.23,36.18,5.55,54.57,4.56-10-11.58-21.69-21.66-31.29-33.63A743.85,743.85,0,0,1,1245.39,1246.64Z"/><path class="cls-1" d="M1160.94,1075.55a251.82,251.82,0,0,0,27.48,63.21c5.49,9.06,11.19,18.27,19.74,24.84-11.31-32.28-17.49-66.06-29.28-98.19a657.24,657.24,0,0,1-23-80.52c-5-22.62-13.71-44.19-19.2-66.66-.48,52.5,7.26,106,27.33,154.71l-1.65,1.53Zm7.56,4.59a125.07,125.07,0,0,1,9.66,15.69c-4.56-4.23-11.16-8.19-12.09-14.82Z"/><path class="cls-1" d="M1478.37,1352.75c-13.29-15.27-33.21-22.23-47.07-36.9-20.37-17.4-33.27-41.13-48.69-62.61-10.17-14.22-17.43-30.36-28.59-43.89-17-20.91-31.38-43.8-49.14-64.11-21.39-24.36-37.47-52.68-57.27-78.24-18.36-23.55-31.26-50.61-46.68-76-21-32.61-36.9-68.16-55-102.39,7.29,34.41,19.65,67.5,26.94,101.91,9.24,41.58,23.22,81.87,34.29,122.94,6.24,23.64,13.86,47,23.85,69.33,21.33,45,45.15,89.13,75.63,128.64a254.85,254.85,0,0,0,45.66,50.55c7.68,7,18,10.71,24.12,19.5,22.8-1.89,45.75-2,68.52.63-11.4-5.61-22.23-12.66-30.12-22.8-13.32-16.74-30.09-30.45-42.54-47.91-16.41-22.35-33.75-43.95-51.27-65.4-12.24-14.49-18.9-32.46-28.74-48.48-9.66-17.82-21.57-34.74-27.45-54.3a673.39,673.39,0,0,0,50.85,72.15c14.16,16.86,26.46,35.22,41.55,51.3,18.06,19.05,33.42,40.5,53,58.08,13.8,12.18,23,30.12,40.59,37.5,20.43,8.73,42.51,13,62.4,23.07C1500.18,1376,1489.08,1364.54,1478.37,1352.75Z"/><path class="cls-1" d="M2198.31,1060.34c2.1-2.67,4.26-5.31,6.39-8-15.18-3.81-29.22-10.89-44-15.69C2171.88,1046.51,2186,1052.09,2198.31,1060.34Z"/><path class="cls-1" d="M2221.47,1088.21a57.12,57.12,0,0,1-20,3.63c3.57,2.37,7.2,4.74,10.83,7.11Q2216.82,1093.5,2221.47,1088.21Z"/><path class="cls-1" d="M2293.83,1346.75c-13.77,4.47-28.11.45-42.12.21-15-.93-30.06.09-45-1.89,2.13,1.08,4.32,2.1,6.57,3.12,18.33,1.92,36.72,3.93,54.87,6.93-18.24,4.32-37.17,2.49-55.71,4.41-25.83.48-51.9,2.19-77.46-2.43a97,97,0,0,1,3.18,25.11c26.79,1.41,52.47,9.45,77.61,18.12,36.12-2.61,72.42-7.08,108.57-1.65-5.7-18.45-2.88-38.16-4.44-57.15A142.33,142.33,0,0,0,2293.83,1346.75Z"/><path class="cls-1" d="M2363.52,652.1c-10.14-8.34-19.59-17.49-30.48-24.81,3.21,13.53,13.32,23.82,26.34,28.41Q2361.4,653.9,2363.52,652.1Z"/><path class="cls-1" d="M2192.22,1013.57c-9.33-1.41-18.6-3-28-3.87,6.33,4.89,13.2,9.78,21.33,11C2189,1019.87,2190,1015.94,2192.22,1013.57Z"/><path class="cls-1" d="M2127.63,940.58c5,3.51,10.95,5.19,16.83,6.72A23.5,23.5,0,0,0,2127.63,940.58Z"/><path class="cls-1" d="M1932.9,1147.34c-12.27,4.05-25.11,5.79-37.92,6.93,10.26-.39,20.58-.36,30.9-.63Q1929.3,1150.4,1932.9,1147.34Z"/><path class="cls-1" d="M2128.62,911.3c10,10.14,26,5,38.79,7.35-4.77,2.34-9.6,4.44-14.34,6.69q7.69,1.8,15.48,3.66c1.47-.84,4.44-2.52,5.91-3.39-1.26,9.39-12.15,7.86-19,9.87,5.61,2.28,11.16,4.56,16.62,7.23-6.9,1.53-13.86.69-20.76.54,6.87,4.47,14.61,7.65,20.73,13.26h-13.35c10.29,3.81,21.06,6,31.65,8.85A130.4,130.4,0,0,0,2204.7,949c-11.49,2.79-22-5.4-33.48-1.95,6.57-4.71,13.08-9.63,18-16.14,6.18-7.89,16.05-11,23.7-17.07-12.09.36-24.15-.75-36.21-.27-7.44.12-15.21.87-22.05-2.61C2146,910.88,2137.26,910.61,2128.62,911.3Z"/><path class="cls-1" d="M2116.83,895.13a300.5,300.5,0,0,1,37.29,13.8C2145.48,897.41,2129.7,897.62,2116.83,895.13Z"/><path class="cls-1" d="M2201.79,1025.63c4.8,2.19,9.36,4.92,12.87,9,2.88-6.72,6-13.35,9.3-19.89A185,185,0,0,1,2201.79,1025.63Z"/><path class="cls-1" d="M1913.37,1166.15c7.17-.75,14.79-1.56,20.28-6.81C1926.66,1160.87,1919.52,1162.43,1913.37,1166.15Z"/><path class="cls-1" d="M1939,1322.57a73.35,73.35,0,0,0,22-3.51C1953.54,1319.09,1945.86,1319.18,1939,1322.57Z"/><path class="cls-1" d="M1942.23,1144.55c2.94.87,8.7-5,4-6.24C1942.77,1137.23,1936.83,1142.84,1942.23,1144.55Z"/><path class="cls-1" d="M1954.2,1306.13c3.21-2.85,6.45-5.67,9.66-8.55-6.54.15-13,.3-19.53.81C1947.45,1301.12,1950.81,1303.64,1954.2,1306.13Z"/><path class="cls-1" d="M1929.72,1092.71c-5.1,2.79-10.65,4.83-15.18,8.52,7.47-2,14.61-5.1,22-7.5C1934.25,1093.37,1932,1093,1929.72,1092.71Z"/><path class="cls-1" d="M1949.16,1229.45a43.75,43.75,0,0,0,14.73-7.2C1957.47,1221.08,1952.76,1224.53,1949.16,1229.45Z"/><path class="cls-1" d="M1934.49,1080.47c-8.16-1.71-16.44-.51-24.51.84q6,3.33,12,7A67.37,67.37,0,0,0,1934.49,1080.47Z"/><path d="M1564.35,1475c-30.87,3.48-62,2-92.82-.75-27.12-.09-54-7.29-81.15-3.21-22.71,1.83-45.6,8.19-68.37,3.39-44-4.2-88-10.17-132.3-7.92-18.09.69-35.85,4.62-53.94,5.34-58.23,2.31-115.44,19.74-174,14.28-28-3.42-56.55-3.87-84.54.42-51.33,7-103.23,6.9-154.92,8.88l-.18,1.68c24.33,2.64,49,2.28,73.11,7.29,32.46,6.54,64.95-4.89,97.5-1.53,25.11-1.08,50,2.58,74.82,6.06,23.91,3.51,48,.27,72,1.11,31.08,1.17,62-3,92.88-6.51,10.08-.9,20.37-3.12,30.36-.21,46.44,10,93.93,2.16,140.85,2.64a316.79,316.79,0,0,0,68.88-1.83c24-3.63,48.3.51,72.36-2.79,41.85-4.89,84-2.58,126-2.61,12.9.51,25.62,2.94,38.52,3.75,24.06,2,48.39.54,72.3,4.5,44.67,7.5,89.88,11.28,135,14.79,45.3-1.32,91.11.06,135.9-7.8-46.53-5.49-93.45-10.17-138.84-22.35-50.31-10.59-102.06-7.56-153-12.33C1628.67,1478.21,1596.57,1471,1564.35,1475Z"/><path d="M1772.88,350c-12.09-6.48-21.84-16.56-34.29-22.35-16-7.77-29.1-20.52-45.45-27.63,11.91,11.49,26.61,19.65,38.28,31.44,23.19,26.37,54.66,44,86.85,57,11.85,4.2,18.33,16.62,30.39,20.16-5.67-8.07-11.34-16.2-17.31-24C1815.12,368.09,1792.05,362.06,1772.88,350Z"/><path d="M768,805.19A57.38,57.38,0,0,0,778.59,793c14.67-22.65,28.83-45.72,41.46-69.6,16.89-34.47,17.07-73.47,19.77-110.88.9-19.62-10.08-37.38-8.91-57a70.07,70.07,0,0,0-23.31-52.29c-.6,15.66,6.87,30.42,5.55,46.14-.84,12.45-.21,25,4,36.9,6.09,18.24,2,37.5,2.13,56.22.45,22.89-7.89,44.49-14.7,65.94A738,738,0,0,1,768,805.19Z"/><path d="M354.18,545.66c15.36-16.59,32.43-31.5,49.62-46.17,15.84-13.8,35.22-22.68,51.09-36.39,13.17-10.77,23.76-24.57,38.22-33.81,14.07-9.42,31-14,44-25.23,14.46-12.6,30.69-22.92,45-35.67,6.81-5.7,13.32-12.54,22.38-14.43-26,26.64-54.72,50.31-83.76,73.47-7.74,6.42-16.29,12.12-22.5,20.16a93.29,93.29,0,0,0,12.09-7.23c31.47-22.11,64.17-42.66,93.54-67.59-7,11.34-14.55,22.65-24.93,31.26a1047.84,1047.84,0,0,1-92.4,72.27c-15.63,12.18-29.34,26.58-43.47,40.44-15.9,16.77-33.06,32.4-48.36,49.68,33.81-21.24,62.73-50,98.07-69.09,16-8.31,30.42-19.23,44.61-30.24,19.86-16.29,41.43-30.36,61.23-46.74,11.1-9.27,18.63-21.84,25.74-34.23C633.81,368,650,354,656.1,334c3.54-13.17,16.35-19.83,26-28.05-4.53,16.83-4.23,34.38-7.29,51.45-4.83,18.3-15.12,34.62-26.28,49.68-13.14,17.46-22.08,37.59-34.53,55.5-10.62,16.2-23.76,30.54-35.52,45.9A102.19,102.19,0,0,1,562,525.38c-17.73,14.1-34.71,29.13-52,43.8-23.79,22.05-50.49,41-72.63,64.83-5.64,6.3-11.76,12.75-13.68,21.27,25.32-27.81,59.43-45.18,92.1-62.73,21.78-12.54,38.85-31.35,58.74-46.47,16-11.94,26.94-28.83,40.29-43.32,18.9-21.6,30.6-48.06,44.34-72.93,11.91-18.27,24.69-36.39,31.17-57.48,8.1-22.47,2.91-47.43,12.12-69.6,4-11,13.38-18.51,20.64-27.27,9.09,6.57,13.74,17.22,21.45,25.17,9.36,22.35,19.59,44.46,27,67.62,3.6,10.26,11.76,17.67,18.66,25.74a209.81,209.81,0,0,0,63.72,58.62c-10.44-12.36-23.28-22.62-32.25-36.24-7.71-10.62-12-23.28-20.25-33.54-7.92-10-10.89-22.56-15.33-34.23,21.6,16.8,42,35.55,58.95,57.12A42.91,42.91,0,0,0,838,391.25c-11.58-15.66-24.45-30.33-35.37-46.47,10.62,7.41,20.37,16.05,31.44,22.89,30.69,16.44,55.56,41.67,86.25,58.2,27.75,14.61,54.54,31.5,84.27,42,18.24,6.84,35.46,16.47,54.18,21.9-12-9-26.19-14.61-38.73-22.83-12.66-7.14-23.31-17.34-36.27-23.91-15.69-8.13-30.84-17.19-46.08-26.1-25.92-15.27-45.12-39-68.91-57A500,500,0,0,0,921,314c16.23-11.67,26.88-29.88,44.7-39.45,6.75-4.17,10.89-11.58,18.18-15.06A120.32,120.32,0,0,0,1014.27,236c13.47-13.83,30.69-22.83,46.44-33.63-21,21.63-43.59,42.33-59.7,68.13-9.87,15.84-28.5,21.39-42.39,32.64-16.32,12.66-32,26.25-47.19,40.2-7,6.36-14.34,12.54-19.71,20.43,20.88-13.56,41-28.41,62.55-40.95,15.27-9.84,33.3-15.33,46.86-27.78,11.4-10.23,16.71-25.2,27.06-36.33,15.87-17.22,34.14-32,52-47,11.31-9.42,18.87-23.34,32.58-29.76,9.75-4.41,19.35-9.33,27.72-16.14-11.52,9.09-18.51,22.56-29.82,31.77-36.06,20.73-65,51.81-87.75,86.34-11.31,16.11-25.92,30-35,47.64,12.39-9.18,21.51-22.08,34.5-30.57,12.78-7.95,22.14-19.95,33.93-29.1,12.09-8.58,22.14-20.58,37-24.51,14.07-3.87,22.77-16.11,32.4-26,6.66-7.14,17.1-2.19,25.53-3-9.09,9.6-20.91,15.81-33.45,19.56-19.29,5.7-30.39,23.58-43.89,37-10,11.16-23.4,18.36-34,28.86-10,10-12.75,24.39-17.37,37.23-11.91,33.54-25.44,66.66-43.29,97.53,8.58-7.44,14-17.58,19.74-27.21,15.9-28.2,30.12-57.33,43.71-86.7,6.93-14.25,21.63-21.75,32.85-32.1,12.72-10.77,21.48-25.29,34-36.21,9.69-8.34,23.34-7.29,34.53-12.42,18.63-7.47,28.56-26.28,44.55-37.5,8.82-6.21,15.69-15.18,25.14-20.34,5.55,7,10.74,15.21,11.64,24.36-1.56,11.28-11.22,18.87-16.14,28.62-3.6,7.92-4.32,16.89-8.61,24.54-3.12,5.94-7.38,12.33-4.32,19.26,3.3,10.74-5.16,21.63-.84,32.28,4.17,8.4,13.14,13.35,16.89,22.08,5,11.28,7.89,23.55,14.82,33.93,9.48,14.1,20.13,27.42,30.63,40.83,24.18,28.35,46.32,58.41,69.09,87.9,4.74,6.06,9.15,12.57,15.45,17.22-21.54-33.63-45-66.09-65-100.71-12-20.4-29.61-36.78-41.31-57.36-5.91-10.08-9.57-21.51-17-30.66-4.26-5.52-9.66-10.2-13.11-16.32-1-9.9,1.62-19.89,1.83-29.82,2.7-5.64,8-9.75,10.11-15.75,3.12-8,3.15-17.7,9.87-23.91,9.93-11,20.22-25,17.07-40.77-2.94-19.35-20.61-32.1-24.06-51.21-2.91-13.77-3.93-27.87-6.15-41.79-4.08-17.55,9.48-33.6,5.79-51.21-1.65-11.49-12.15-19.14-13.47-30.75,22.44,18.39,53.94,22.35,73.23,45,11,12.51,26,20.07,40.14,28.5,14.49,8.58,21.33,24.63,31.47,37.32,15.39,20.79,41.1,34.14,48.09,60.63,15.15,47.85,46.38,87.81,75.45,127.86,17.52,24.39,40,44.4,61.53,65.13,33.63,27.36,66.75,56.22,105.09,76.86-30.72-29.31-59.46-60.93-83.34-96.12-11.07-15.81-28.08-26.13-39.6-41.55,8.85-9.51,18.63-18.12,26.88-28.23,18.12-22.05,41.7-39.27,56.58-64,.78,5.85,1.56,11.73,2.28,17.58,1.5,19.62,14.82,35.31,25.32,51,7.38,11.37,21.21,14.88,30.66,24,6.12,5.1,11.46,11.22,18.39,15.3-7-11.31-17.4-20.55-21.93-33.36-3.87-11.07-12.48-19.29-19.71-28.17-14.37-15.51-12.18-39.75-28.23-54.3,11.73-3.66,24.21-3.39,36.36-2.28,17.46,2.13,29,16.77,41.73,27.36,13.83,12.54,31.26,19.62,48.21,26.85,17.76,7.38,32,20.94,49.68,28.59q22.77,9.9,44.76,21.51c16.74,8.88,34.86,14.85,51.48,23.94,18.09,10.05,29.4,28.05,44.22,41.91,18.12,18.15,42.66,29.34,57.75,50.58,9.9,13.74,20.13,27.39,32.82,38.76,15.3,12.9,27.87,28.44,39.81,44.43,18.3,24,48.42,35.43,65.55,60.45,13.56,17.25,28.17,34.38,46.8,46.38,21.45,15.3,42.42,31.71,66.06,43.59-21.12-22.62-44.25-44.13-59.4-71.55-19.86-24-36.51-51.24-61.65-70.32-25-18.87-42.09-45.66-65.19-66.51-22.5-20.58-38.1-48-63.33-65.64a284.57,284.57,0,0,1-50.79-45.45,151.24,151.24,0,0,0-52.8-39.21c-27.51-12.15-54.9-24.78-81-39.81-13.35-7.71-25.74-17-39.6-23.82-10.77-5.34-22.17-9.27-32.79-14.85-18.15-9.3-31.5-25.56-49.62-34.89-20.1-10.89-44.1-11.52-66.24-8.07-11.37,1.29-18.63,11-28.65,15.27-13.74,6.63-26.67,15.15-41.61,19-24.15,9.66-48.09,20.37-73.62,26-18.21-24.84-29.4-53.61-42.66-81.12-11.82-25-35.94-40.23-51.87-62.07-6.9-9-13.08-18.6-21.39-26.34C1338.69,80,1321,72.44,1307,59.84c-7.86-7-15.18-14.79-24.27-20.25-18.45-11.19-39.84-16.92-57.09-30.12-8.37-6.42-19.41-12.66-30-7.65-19.14,8-35,21.72-50.79,34.89-31.56,25.53-53.43,60.48-82.65,88.38-14.76,12.24-30.72,23-45,35.82-19,16.83-41.94,28-62.43,42.69-26,18.54-52.32,39.15-67.08,68.25-5.07,11-13.65,19.74-20.13,29.88-7,12.72-18.12,22.41-25.53,34.86a182.08,182.08,0,0,1-39.45-33.09c-14-15.6-35.37-21.6-49.17-37.38-12.84-13.68-30-25.89-49.56-25.44-14.1.21-26,9.27-35.22,19.05A276.83,276.83,0,0,1,625.77,297c-26.94,18.54-45.6,46.32-72.21,65.28C534.18,375,519,393.41,497.79,403.46c-21.33,10.74-38,28.08-54.75,44.61-14.91,14.31-33.51,23.94-48.93,37.62s-30.45,28-43.74,43.8c-4.5,6.54-11.46,13.8-8.82,22.38C347,553.82,350.67,549,354.18,545.66Z"/><path d="M1831.14,430.16a40.16,40.16,0,0,0,21.42,20.76c10.29,3.87,16.08,13.95,25.47,19.26,9.84,6.36,22.5,8.31,30.48,17.43,16.11,17,36.6,29,53.37,45.27A120.53,120.53,0,0,0,1994,555.29c28.65,14.58,56.07,31.38,84.12,47-7.8-9.06-18.15-15.24-27.54-22.41-29.94-22-59.16-44.91-88-68.37-16.32-12.57-32.94-25.74-52.83-32.16-17-4.89-22.53-25.5-39.24-30.87C1855.86,445.64,1846,432.86,1831.14,430.16Z"/><path d="M1308.51,179.3c4.77,9,13.68,15.12,22.65,19.5A123.28,123.28,0,0,0,1308.51,179.3Z"/><path d="M1261.77,254.42c-1.44,5.28-3.72,10.68-2.64,16.26,2.76,21.18,17.1,38,27.21,56,7.38,13.29,15,26.49,23.7,38.94,7.83,11,11,24.42,17.46,36.18,12,22.32,29.13,41.19,45.93,59.94,11.82,12.39,26.46,21.54,39.06,33,11.55,9.18,21.72,20.1,33.9,28.47-14.85-20.64-35-37.14-48.78-58.65-10.74-16.95-25.11-31-38.73-45.51-17.4-17.76-24.06-42.54-39-62C1305,338.36,1299,314.57,1285,295.28,1275.57,282.59,1272.24,266.42,1261.77,254.42Z"/><path d="M1714.71,375.08c20.25,15,38.79,32.16,58.83,47.43-.15-.87-.45-2.58-.6-3.42-22.5-19.32-44.79-38.91-66.12-59.49-5.4-5.13-12.21-8.34-19-10.92C1690.53,362.63,1704.63,367.55,1714.71,375.08Z"/><path d="M1876.56,424.1c9.09,10.41,21,22,35.43,22.86C1898.91,441.32,1888.35,431.78,1876.56,424.1Z"/><path d="M1461.6,388.31c10.35,8.55,18.39,19.56,29,27.81-8-16.38-19-31.08-28.35-46.71-14-16.68-30.12-31.77-41.88-50.25-13.26-24.18-33.69-43.68-45.18-68.94-9.75-20.55-30.72-31.68-43.89-49.44,1.53,9.87,5.94,19,13.77,25.35,18.51,16.65,22.68,42.45,36.45,62.34,14.67,23.25,35.7,41.73,49.44,65.61A147.32,147.32,0,0,0,1461.6,388.31Z"/><path d="M1531.56,522.38c13.11,12.36,29.55,20.19,44,30.75,14.46,9.12,28,20.22,43.92,26.67-20.07-16.32-42.09-30.54-60.09-49.32-23.67-27.18-51.45-50.37-79.14-73.29-16.86-11.73-27.39-29.94-43.44-42.6.09,5.55-.15,11.58,3.78,16.08,11.43,15.33,24.9,29,37.29,43.62C1493.7,492.59,1514.19,505.79,1531.56,522.38Z"/><path d="M1030.53,1586.6c18.12-.12,36.21-1.44,54.3-2.4,37-1,74,1.38,110.88,3.6,60,1.29,120.09.9,180.12,1.56,23-.27,45.9-3.66,68.91-2.73,14,.51,28-.39,42-1.26,15-1,30.15.18,45.12-1.74,32-3.81,64.17-6.24,96-11.1-11.94-2.64-24.09.27-36.12-.09-21-.27-42.12,1.44-62.91-2.22-21.81-3.54-44-2.07-65.88-5.13-37.86-5.49-76.11-1.35-114.09-4.83-41.16.15-82.32-5-123.45-1.2-69,5.73-139.29-4.26-207.39,11.37-17.76,3.84-33.78,13.35-51.75,16.38,4.2,2.16,8.58,4.2,13.5,3.9C996.78,1590.65,1013.52,1586.75,1030.53,1586.6Z"/><path d="M1993.44,1447.61c-35.91-4.2-72-5.91-108.09-8-28.95-.09-57.93,1.56-86.82-.72a422.54,422.54,0,0,0-84,.75c-7.65,1.53-16.14,1.32-22.47,6.51,15.75,1.14,31.2-4.71,47-2,37.41.75,73.11,14.07,110.4,16,45.48,1.05,89.88,12.36,135.18,15.6,26.1,1.11,51.87-4.56,77.94-4,20.25.6,39.81-5.91,60-6.09,12.27-1.68,25,.18,37-3-24.12-3.69-48.78-2.88-72.81-7.41C2056,1449.83,2024.67,1448.45,1993.44,1447.61Z"/><path d="M616.35,1517.48c-30.72,3.42-61.74,5.64-92.67,4.23-18,.6-36,1.71-54,1.26-13.32.42-27.12-1.68-40,2.76,11.43.48,22.86,1.26,34.26,2.07,39.09,2.67,77.31,13.14,116.64,13.11,38.88,2.73,78-2.61,116.7,3.6,34.77,5.67,70.11,5.67,105.24,6,28.29,1,56-5.88,84.12-7.89,24.24-2.82,48.87-.78,73-4.89-20.22-2.52-40.8-1.11-61-4.56-21.45-3.66-42.72-8.31-64.29-11.07-36-8-73-3-109.5-2.76C688.77,1516.22,652.47,1514,616.35,1517.48Z"/><path d="M1831.26,440.48c-11.58-10.23-23.94-20-37.77-26.94-7.26-4.14-11.43-12.48-19.74-14.85,5.85,10.11,16.14,16.38,25.32,23.16C1809.66,428.27,1819.65,436,1831.26,440.48Z"/><path d="M719.07,706.1c8.76-8.1,11.7-20,16.11-30.69,3.81-11.58,10.17-23.7,6.75-36.15l-3.24,1.11C732.21,662.3,727,684.59,719.07,706.1Z"/><path d="M933,631a33.07,33.07,0,0,0,4.68-15.6c1-14.25,2.7-28.59,1.86-42.87-1.59,4-3.48,8.13-3.3,12.54C936.24,600.47,934.8,615.8,933,631Z"/><path d="M1713.24,561.89c1-.63,1.92-1.23,2.91-1.83-14.94-9.36-28.92-22.38-46.68-25.65C1683.39,544.58,1699.38,551.6,1713.24,561.89Z"/><path d="M467.16,557.93c-4.53-3.06-10.38-1.44-13.71,2.46-11.64,11.43-26.07,19.77-36.48,32.46-12.45,15.18-29.37,25.53-44.22,38,16.17-3.75,30.51-12.69,45.48-19.53,15.12-6.57,27-18.24,39.24-28.92C463.74,576.26,472,567.29,467.16,557.93Z"/><path d="M1668.15,596.66c21.75,18.06,46.62,33.12,74,40.71A185,185,0,0,1,1804.71,671c-12.3-18.27-33.06-28.23-50.07-41.49-17.07-14-37.59-22.26-56.34-33.51-19.53-11.19-38.34-24-59.67-31.65C1645.35,577.61,1657,587.24,1668.15,596.66Z"/><path d="M1732.17,489.71c5,7.86,13.53,12.3,20.73,17.94,10,7,19.17,15.48,30,21.39C1768,513.77,1750.08,501.26,1732.17,489.71Z"/><path d="M543.09,625.13c-28.86,32.37-72.15,45.45-104.79,73a51.27,51.27,0,0,0-16.89,25c.48,2.7,1,5.4,1.41,8.1,3.42-24.18,29.73-33,49.83-39.42,22.8-4.26,42-17.88,60.48-31.08,12.66-9.15,22.23-21.66,33.93-31.89,29-26.1,62.34-47.43,87.81-77.31,11.76-14,16.71-31.83,24-48.21-16.74,7.17-21.9,26.22-34.23,38.16C612.84,571.85,575.16,595.16,543.09,625.13Z"/><path d="M1909.35,681.68c-15.93-10-29.07-23.79-44.7-34.23-13.74-9.33-29-16.11-43.26-24.45-14.76-9.18-31.77-14.07-46-24.27-12.81-7.32-23.82-18-37.83-23,19.38,16.32,41.46,29.4,59.73,47.1,37.23,33.81,84.51,53.28,131.16,70.08C1923.15,687.53,1915.53,685.7,1909.35,681.68Z"/><path d="M1124.37,333.89c-17.1,15.72-26.13,37.68-40.83,55.38-8.7,12.69-21.09,27-15.9,43.56,19.26-21.63,39-43.53,52.83-69.21,5.34-9.66,13.23-17.61,18.6-27.27,6.12-11,10.5-23,16.71-33.9,10.08-15.72,21.63-30.78,28.92-48.09C1161.3,278.3,1149.33,311.21,1124.37,333.89Z"/><path d="M2075,689.87a417.21,417.21,0,0,1,71.76,20.37c-16.86-16.08-39.3-24.33-59.07-36.09-41.46-18.54-82.89-37.17-123.87-56.76-33.6-15.87-65.19-35.82-99.75-49.62-24.06-13.89-47.55-29.46-74.7-36.75,21.42,24.51,53.1,35.67,80.16,52.41,38.76,25.14,78.3,49.56,120.84,67.86C2018.82,663.68,2045.46,680.27,2075,689.87Z"/><path d="M1172.28,439.58a287.75,287.75,0,0,0,7.08-62.67c-12.36-.3-15.42,13.23-18.33,22.5-3.75,15.75-7.41,32.25-4,48.39,1.92,15.18-1.56,30.3-1.8,45.45C1163.43,476.27,1164.66,456.86,1172.28,439.58Z"/><path d="M1414.89,390.86a102.21,102.21,0,0,0-30.78-27C1390.65,376.07,1402.56,384.92,1414.89,390.86Z"/><path d="M1567.44,1155.65c8.88,8.25,16.74,17.91,27.9,23.28-3.42-10.5-12.78-17.19-20.19-24.75-16.65-16.68-36-30.3-54.69-44.52-31-25.2-67.92-41.55-99.93-65.34-26.55-13.38-50.61-30.87-75.42-47.1-34.26-19.47-65-44.67-100.38-62.28a227.27,227.27,0,0,1-52.83-41.25c4.17,12.12,13.35,21.45,21.6,31,10.77,11.28,20.79,23.73,34.17,32.1,31.62,20.34,62.79,41.37,94.92,60.9,20.88,15.48,41.67,31.17,64.77,43.26,28.11,20.76,60.57,34.08,92.37,47.94C1523.73,1122.2,1547.46,1136.63,1567.44,1155.65Z"/><path d="M1392.24,1121c-26.19-23.82-53.13-47.4-83.58-65.64,2.1,8.52,10.38,12.78,16.11,18.66,15,13,27.51,28.47,42,41.94,17.22,15.9,30.9,35.46,50.07,49.29,19,13.68,34.44,32.49,56.22,42.06,23.88,11.22,45.72,26.07,67.68,40.53-13.23-17.43-30.66-31.08-46.89-45.57C1461.84,1172.9,1421.37,1153.76,1392.24,1121Z"/><path d="M2551.8,1232.09c-5.37-2.16-10.17-5.28-14.91-8.4,16.2,1.23,32.46,1.89,48.36,5.76-9.15-7-19.95-11.22-30.36-15.9,2.43-.6,7.32-1.8,9.75-2.43-15-5.73-30.33-11.19-43.38-20.79a47.56,47.56,0,0,0,18.57-4.47c9.66-1.26,19.5.09,29.25-1-12.15-6.54-26.43-9.06-37-18.48l14.7-1.05c-15.54-7.2-33.15-10-49.74-14.34,3.66-1,7.35-2.1,11-3.18,10.83,2.88,20.91,10,32.37,9.69l1.11-4.74c-9.33-10.41-24.18-12.75-35.52-20.28,0-1.35-.09-4.08-.09-5.43-12.81.78-22.47-8.67-32.58-14.91,11.22.63,22.59-.3,33.81,1.41,10,2.28,13.77,15.48,24.78,15.57-11-15.66-25.62-29.28-43.17-37.26a152.65,152.65,0,0,1-31.2-20.67c10.53-.09,20.37,4.71,31,4.35,11.46-.36,22.47,3.09,32.94,7.5-9.27-13.38-25.53-18.75-38.28-28,9.27-1.35,18.6-.84,28-.3-7.8-6.3-16-12.63-25.41-16.23-12.42-1.68-26.79,4.59-36.81-5.61,8.49.24,17,1,25.47,1.29-3.54-2.64-7-5.28-10.5-7.92,7.44-1.11,14.76.54,22.08,2.1-6.84-8.31-13.35-18.54-24.33-21.57-9.24-2.34-16.32-9.3-22-16.56,6.63,1.23,11.61,5.88,16.65,10-.69-2.22-2.1-6.6-2.79-8.79,2.13,0,6.39-.06,8.55-.06a224.46,224.46,0,0,0-24-13.83c17.76-.21,36.48-7.62,53.19,2.22A27.69,27.69,0,0,0,2477.85,968c-12-5.13-24.24-10.53-37.38-11.55-7.59-.12-12.66-6.69-18.63-10.44,5.13-.27,10.35-.45,15.54-1.17-4.92-2.22-9.72-4.17-14.52-6.45,14.73-.69,29,5.22,39.6,15.42-3-11-13.47-17.1-22.47-22.77-15-10-34.56-9.9-48.63-21.54,17.88,5.67,36.72,7,54.63,12.6-2.16-3-4.29-6-6.36-9,12.39-1.83,24,3.09,35.88,5.76-2.79-2.85-5.73-5.46-8.73-8l4.44-3.93c-8.43-2.49-17.43-4-24.69-9.15-11.88-8.91-27.18-10.23-39.93-17.43,3.09-1,6.3-3.39,9.75-1.92,16.11,4.23,33,3.63,49.44,5.7-5.79-7.41-15.75-9.75-22.38-16.32-9-8.82-21.06-12.78-32.43-17.4,14.91,3.36,30.21,2.07,45.33,3.66-12.66-14.94-32-22.17-49.41-30.3,14.61-1.59,29.1-3.93,43.74-5.43-12.21-6.15-26.52-7.53-37.68-16a115.18,115.18,0,0,1,33.87,8.52c-5.25-13.2-20.7-13.05-30.42-20.7-2-2.31-6.78-4-5-7.68,11.79-3.87,24.3-7.17,36.75-4-5-7.83-13.5-12.48-22.11-15.18-10.44-.84-20.94,1.8-31.26-.54,3.87-2.94,7.83-5.79,11.58-9-10.8-.87-22.71,1.11-32.13-5.4,12.18-.6,24.42-.15,36.63-1-7.05-3.93-14-8-20.19-13.26-11.55-10.11-28.53-8-41-16.41,12.27.66,25.2,6.54,37.17,1.14a113.15,113.15,0,0,1,21.69-9.18c-16.11-7.17-34.71-7-49.41-17.55,14.67.57,29.22,2.43,43.86,3.39-13.62-8.91-30.06-12-43.77-20.79a238.6,238.6,0,0,0,28.65-8.31c-7.53-2.22-15-4.47-22.14-7.8-.69-3.06-1.29-6.15-1.77-9.24-18.39-26.85-34.44-55.08-50.64-83.25L2305,561.8c-5.43,9.87-5.55,22.35-13.89,30.51-13.59,15.57-23.22,34.08-37,49.53-3.57,4.62-9.81,9.24-7.11,15.9,4.77-4.14,9.27-8.64,14-12.87a56.48,56.48,0,0,1-15.72,24.24c10.89-3.24,23.19-5.07,30.39-14.85-5,8.55-6.06,21.12-16.53,25.11a136.75,136.75,0,0,1-32.76,9.33c5.13,2.46,10.41,4.53,15.57,7-11.58,11.55-27.93,16.47-42.24,23.79,11.16.84,22.26,2.28,33.45,2.94,13.77-.45,20.55-15.69,34-17-2,3-3.6,6.51-6.36,9-16,12.75-32,25.77-50.55,34.71,0,.72.12,2.16.15,2.88,15.78-5.46,33.66-3.84,48-13.35a136,136,0,0,1-24.57,26.76c5.58-.72,10.92-2,16.53-3-4.74,4.77-9.09,9.9-14.25,14.19-7.68,1.47-15.54-2.64-23.25-.75a135.92,135.92,0,0,0-24.93,12.6c11.88-1.65,23.55.93,34.86,4.47-5.52,4.83-11.34,9.3-16.83,14.13,15.87-2,31.2-6.66,46.47-11.16-7,12.63-22.08,16.08-33,24.27-9.75,7.08-21.57,10.74-30.84,18.51,15.27-2.49,30.54,0,45.84.09-7.65,10.17-19.2,15.81-28.77,23.76,16-1.2,32.55-1.5,47.1-9.09-5.1,5.82-13.38,6.42-19.23,11.13-11.79,8.7-25.32,14.94-36.42,24.6l9.36.27c-16.08,4.62-29.79,15.57-46.14,20.1-5.13-6.57-11.67-11.73-17.79-17.25,8.94,0,18.75,2.67,27-2.13-17.1-4.11-33.84-9.72-49.5-17.73,12.24-.33,24.42-2.25,36.69-.81-5.58-5.67-11.49-10.95-17.37-16.26a145.44,145.44,0,0,1,8.58-14c-1.35-1.26-4-3.84-5.37-5.13,3.6-.06,10.83-.24,14.43-.33-6.9-7.68-17.28-10.68-25.86-16,6.93-.39,13.86-.33,20.82-.39-7.05-5.25-14.91-9.15-22.65-13.17,4.83-2.73,9.78-5.58,13.59-9.75-11.61,3.42-20.4-4-29.61-9.45a173.38,173.38,0,0,0,22.68.45c-9.27-7.35-20-13-27.42-22.47,3.3-1.23,6.6-2.55,9.9-3.87-6.27-2.64-13.26-3.93-18.84-7.92-6.51-6.93-11.58-15-16.8-22.86,2.4.09,7.17.21,9.57.3-11.49-10.14-20.43-24.45-36-28.62-7.8-1-10.41,7.83-15.21,12-7.38,4.29-15.69,7-22.08,12.87l17.25-1.56c-7.38,8.34-18,13-24.81,22-9.9,13.08-26.19,17.88-39.6,26.25,14.55.06,29.1-1.74,43.5-3.78-10.14,12.48-26.61,17.1-41.37,21.54a113.61,113.61,0,0,0,17.07,4.92c-8.79,8.64-17.85,17-28.08,23.85,9.24.39,18.48-.18,27.75-.27a56.32,56.32,0,0,0-18.51,14.28c-7.8,9.06-19,14.07-27.6,22.14,9.15-1.53,18.21-3.66,27.27-5.91-4.8,3.48-12.42,6.06-9.06,13.47q11,.72,22,1.32a367.43,367.43,0,0,1-30,21.84l10.38-1c-1.86,1.92-5.58,5.82-7.44,7.77a113,113,0,0,1,39.54-4.8c-15.09,6.6-31.23,10.35-46.26,17,6.54.36,13.14.39,19.71.84-4.47,1.68-9,3.15-13.47,4.8-16.35,8.91-36.93,10.05-50.58,23.7,6-1.47,11.82-3.72,18.09-3.84,12.81-1.32,24,6.3,36.33,8.34-10.5,8.61-22.86,14.67-33,23.76,19.14-5.88,37.77-13.59,56.28-21.24-12.24,16.71-29.37,28.41-44.64,42,7.95-2.31,15.75-5.34,23.73-7.71a41.73,41.73,0,0,1-22.2,9.57c-3.81,3.12-7.56,6.27-11.13,9.63,10.11-2.61,20.73-4.44,31-1.62a194.29,194.29,0,0,0-35.37,15.27c-3.06,6.66-11,4.38-16.68,5.79,10,5.43,21.84,4.53,32.85,5.85-6.33,3.42-12.78,6.66-18.81,10.56-3.84,1.56-7.62,3.15-11.34,4.86,17.19.33,34.29,2.4,51.48,3.51-14.73,7.89-32.4,7.56-46.59,16.35,11.94.66,24,1.62,35.52,5.28-3.6,4.92-9.54,7.47-15.48,8-12.42,1.11-24,5.88-35.79,9.57.9-2.46,1.86-4.89,2.91-7.32-6.3-1.59-12.48-3.36-18.6-5.34,16.41.42,32.79,2.31,49.23,2.49-12.09-7-26.49-9.9-36.54-20.4,8,.36,15.93,1.32,23.91,2-6.6-6.21-13.14-12.51-20.19-18.18l12.93-.87c-9.51-11.13-26.07-10.29-39.33-12.78,11-2.13,23.25.6,33-6.06-5.67-.6-11.94.12-16-4.83-1.74-.24-5.22-.72-7-1,7.77-.42,15.51-1,23.31-1.5-9.3-6.6-19.62-11.73-28.32-19.14,7.32-6.15,16.59,1.71,24.66,1.8-6-8.49-16.53-11.1-25.5-15,7,.15,13.92.51,20.94.15-11.49-8.13-23.52-15.9-36.9-20.58,7.44-3.66,15.54-5.64,23.52-7.77-7.68-5.25-15.84-9.81-23-15.69,5.22-1,10.38-1.92,15.69-2.82-5.61-3.93-13.65-5.82-15.45-13.32-7.53-3.21-15.78-5.46-21.87-11.13-4.92-4.53-7-11.37-12-15.75a9.31,9.31,0,0,0-13.53,2.49c-8.4,11.67-22.38,17.46-36.15,19.77,6,3.42,13.17,2.28,19.86,2.73-9.69,12.21-21.78,22.08-33.51,32.22,11.7-2.25,22.38-8.1,34.2-10-10.41,11.67-25.56,14.61-40.08,17.85,4.59,1.47,9.21,1.59,14.07,2.16-3.69,3.21-7.35,6.42-11,9.6,11.67,1.89,22.92-.51,34.44-2.49-3.84,1.68-7.71,3.21-11.49,5-6.3,8.85-17.49,12-25.47,19,16.86-2.34,32.58-9.33,48.87-14-17.88,8.4-35.85,17.31-51.24,29.79,10.26-1.74,20.58-4.2,31.08-3-8.46,5.58-18.24,9.33-25.53,16.59-5.37,5.64-12.06,9.66-19,13.08l-.36,8.19c6.33-1.62,12.48-4,17.43-8.37,13.62,2.25,25.29-8,38.7-5.61-8.22,2.16-16.71,3.33-24.66,6.42-11.52,3.6-18.24,14.49-28.14,20.76-.06.81-.21,2.4-.3,3.18-9.93-2.07-19.65,3.45-29.58,4.08,15.63,9.27,33.69.6,50.46,4.29-7.83,4.62-16,9.24-25.17,10.23-5.46,4.86-12.84,6.42-19,10,14.34.15,28.44-3,42.66-4.5-12.87,8.85-25.74,21.24-42.75,18.6,6.51,5.61,15.24,6.06,23.25,7.86-3.87,2.1-7.8,4.17-11.73,6.15,6.45,0,7.41,4.32,5.79,9.18,5.64-1.68,11.64-.6,17.37.06-7.86,1.56-15.84,2.49-23.58,4.65q2.43-4.18,4.77-8.46l-9,8.52a160.67,160.67,0,0,1-21.51-1.05q4.82,4.14,9.63,8.46c14.34.12,28.65,1.38,43,.42-18.27,6.63-37.56,11.07-57.15,11,6.39,3.84,14,3.42,21.18,4.17-5.31,10.44-18.54,5.52-27.81,7.53,6.9,4.08,14.88,5.28,22.59,7.11,3.45,3.42,6.78,7.44,11.76,8.67,4.86,2,11.94,1.86,13.26,8.19-9.54,1.83-19.62,2.13-28.29,6.84a146.35,146.35,0,0,1,22.23,2.61c-14.7,7.29-30.84,9-47,9.75,0,.69,0,2.07,0,2.76,15.6.81,31.17,3.36,46.83,2.76-2.28,1-6.81,2.91-9.09,3.87q8,1.08,16,2.25c-12.24,2.13-24.6,3.06-36.84,4.86,2.91,2.46,5.58,5.31,8.94,7.26,11.28-.27,22.62-1.08,33.9.63-16.68,6-32.55,15.24-50.58,16.32l.24,2.49c10.38.21,20.73,1.62,31.14,1.53-13.14,2.73-27.66,2.76-39,10.83a195,195,0,0,1,27.75.81c-7.29,1.41-15.57,1.89-20.28,8.52,9.21-.54,18.48-1,27.66.57-3.12,4.2-8.4,4.8-13,6.24.12.9.39,2.7.51,3.6,7.11.54,16.83-5.49,21.36,2.4-13,1.74-26.28,2.16-38.76,6.57-11.34-19.68-25-37.92-34.62-58.62-15.81-24-24.15-51.66-37.8-76.8-9.36-19.35-17.64-39.24-28.14-58-10.5-27.48-14.91-57.75-31.41-82.71-6-8.52-10.47-19.23-20.52-23.73-14-6.06-28.89-10.38-44.13-11.73-14.19-1.47-27.72-6.45-41.85-8.31-18.9-2.85-38.07-4.35-56.46-9.87-38.49-11.19-76.23-25.23-111.93-43.47-32-18.24-63.48-37.53-96.48-54.06-14.1-7.5-27.9-15.51-40.68-25.14-9.78-7.11-25.47-10.17-34.92-1.11-10.32,15.63-4.74,35.37-9.06,52.62-4.32,18.24-9.54,36.24-14.37,54.36-13.53,41-24.15,83.1-40.56,123.15-13,28.08-24.12,57-38.88,84.21-15.81,35.85-36.9,68.91-57.39,102.21-30.33,50.7-71.28,93.93-113.13,135.21a214.74,214.74,0,0,0-77.88-11.88c-.42-12-.84-23.94-.9-35.91,18.06-3,36.84-3.45,54-10.32,9.78-3.72,20.58-4,30.09-8.58-12.45-.81-25.08.18-37.29-2.82,10.29-4.29,21.63-4,32.46-5.79,6.63-1,12.93-4.14,19.8-3.54,6.42-.42,14,1.2,19.05-4-14.25,1-27.87-4.23-41.07-8.85,19.29-4.53,39.09-4.11,58.74-4.26-12.21-7.68-27.24-6.48-40.92-8.79,4.32-8,14.13-1.83,21.12-2.37.21-.9.57-2.67.75-3.57-4.74-1.44-9.93-2.19-13.26-6.21,9.18-1.68,18.51-1.2,27.78-.66-4.77-6.6-13-7.11-20.25-8.46a186.56,186.56,0,0,1,27.78-.87c-11.67-8-26.4-8.43-39.87-11,11.49.39,23-.84,34.41-2.1-18.33-3.75-35.55-11-52.89-18,10.11-1.5,20.31-1.35,30.48-.75,5.52,1.23,8.55-4.47,12.36-7.23-12.33-1.86-24.78-2.7-37-4.95,5.28-.69,10.56-1.29,15.87-1.77-1.53-1.05-4.53-3.15-6.06-4.17,15.66,0,31.2-2.07,46.8-3.09l-3.15-2.52c-16-.87-32-2.43-46.38-9.93a161.59,161.59,0,0,1,22.17-2.4c-11.82-6-25.65-5.67-38.34-8.73-6.63-1.71-15-.93-19.26-7.23,18.09,2.19,41.28,9.48,54.51-7.83,7.62-1.77,15.57-3,22.41-7.08-9.27-2-22.44,2.85-27.81-7.47,7.56-.6,15.33-.87,22.41-4a175.31,175.31,0,0,1-58.35-11.31c14.34,1,28.65-.27,43-.39q4.77-4.32,9.66-8.46a150.64,150.64,0,0,1-21.42,1c-.63-1.2-1.83-3.66-2.43-4.89l-5.85-3c1.29,2.67,2.7,5.31,4.2,7.92-7.86-2.19-16-3-23.94-4.89,5.49-1.41,12.33,1.17,17.25-1.71-1.71-4.5,1.41-7,6-7.56-4-1.77-7.86-3.57-11.73-5.4,7.92-2.28,16.62-2.94,23.25-8.43-17,2.7-29.85-9.78-42.72-18.6,14.22,1.53,28.35,4.86,42.72,4.32-6.27-3.42-13.68-4.89-19.05-9.81-9.24-1-17.37-5.64-25.23-10.23,16.74-3.75,34.86,5.07,50.46-4.35-9.48-.93-18.48-4.86-28-4.56-.48.24-1.5.75-2,1-1-6.75-8.46-9.51-12.51-14.25-10.08-11.61-26.19-13-40.14-16.53,13.47-2.46,25.11,7.8,38.76,5.52,4.92,4.41,11.1,6.78,17.43,8.4-.06-2-.21-6.09-.27-8.13-6.33-3.21-12.6-6.69-17.55-11.82-7.62-8-18.27-11.85-26.94-18.48,10.5-.3,20.79,1.8,31.11,3.54-15.54-12.39-33.48-21.36-51.39-29.82,16.29,4.65,32,11.67,48.93,14-8.07-7-19.26-10.23-25.53-19.11-3.75-1.68-7.59-3.18-11.34-4.74,4.5.93,10.08-.3,13.71,3.21,7.11-.72,14.25-1.2,21.39-1.77-4.14-2.73-8.25-5.52-12.18-8.49,4.74-.75,9.75-.87,14.37-2.4-14.55-3.18-29.61-6.24-40-17.88,11.64,2.07,22.38,7.17,33.69,10.47-10.5-11.25-23.55-20-32.73-32.52,6.57-.51,13.56.27,19.68-2.79-12.12-2.43-25-6.54-33.12-16.38C787,889,784,883,778.41,884.42c-6.72.57-9.09,7.68-12.51,12.36-5.52,9.45-16.68,12.39-26.1,16.32-1.77,7.5-9.9,9.39-15.39,13.44,5.16.81,10.32,1.68,15.48,2.55-7,6.15-15.18,10.65-22.89,15.84,8,2.1,16.08,4.14,23.58,7.71-13.35,4.8-25.47,12.42-36.87,20.7,6.9.33,13.83-.09,20.73-.27-9,4-19.32,6.78-25.53,15,8.1,0,17.49-7.86,24.84-1.65-8.79,7.32-19,12.45-28.32,19.08,7.77.48,15.54,1,23.34,1.32-1.77.24-5.31.75-7.08,1-3.9,5.16-10.23,4.41-15.9,4.86,9.72,6.78,22.05,4.26,33.15,5.76-13.29,3.15-29.73,2-39.57,13,3.3.27,9.87.75,13.14,1-7.11,5.64-13.65,11.88-20.22,18.12,8-.6,15.9-1.56,23.91-1.89-10.14,10.41-24.45,13.56-36.75,20.31,16.5,0,32.94-2.25,49.47-2.19q-9.31,2.74-18.75,5c1.05,2.43,2,4.89,3,7.38-11.7-3.66-23.16-8.37-35.46-9.54a21.43,21.43,0,0,1-16.14-8.46,227.85,227.85,0,0,1,35.76-4.92c-14.25-8.58-31.8-8.43-46.5-16.2,17.19-1.26,34.35-3,51.57-3.75-3.81-1.65-7.65-3.12-11.46-4.62a195.36,195.36,0,0,0-19.2-10.53c11.19-1.17,22.92-.75,33.3-5.73-3.09-.48-9.27-1.38-12.36-1.83-11.37-9.9-26-14.43-39.9-19.62,11.07-3.12,22-.6,32,3.81a80.68,80.68,0,0,0-11.88-11.64,40.9,40.9,0,0,1-22.35-9.66c8.13,2.52,16,5.58,24.18,8-15.54-13.47-32.61-25.38-45-42.12,18.51,7.68,37.11,15.36,56.28,21.27-10.08-9-22.2-15.36-33-23.4,7.38-1.92,14.58-4.47,21.78-7.05,10.77-3.66,22.2-1,32.73,2.13-11.22-11-27.27-14.07-41.46-19.56-10.68-5.25-22.38.15-33.6-1.68,8.28-.93,16.68-.78,24.87-2.58-4.59-1.38-9.18-2.79-13.74-4.26,6.57-.75,13.2-.87,19.8-1.29-15.15-6.42-31.32-10.14-46.29-17.07a117.48,117.48,0,0,1,39.27,4.92l-6.72-7.65,9.78.87a339.2,339.2,0,0,1-30-21.78q10.93-.63,21.93-1.32c3.39-7.38-4.14-10-8.88-13.5,9,2.28,18,4.38,27.15,5.88-8.73-8.07-19.92-13.14-27.75-22.26a51,51,0,0,0-18.39-13.89c9.27-.18,18.54.39,27.81,0C631,813.44,622.05,804.89,613,796.52a184.05,184.05,0,0,0,18.09-5c-15.21-4-31.83-9-42.21-21.51,14.22,2.19,28.62,3.33,43,4.26-12-9.42-28.29-12.78-37.86-25.35-7-9.54-18.09-14.67-26-23.28q8.68.81,17.43,1.38c-6.75-5.58-15-8.58-22.5-12.9-4.68-4.2-7.47-13.32-15.21-11.76-15.54,4.08-24.21,18.57-35.88,28.29l9.78.09c-5.46,7.68-10.5,15.72-16.92,22.65-5.64,4-12.63,5.31-18.93,7.95,3.24,1.35,6.51,2.64,9.81,3.9-7.26,9.54-18.06,15.12-27.33,22.44a171.87,171.87,0,0,0,22.92-.48c-9.24,5.7-18.27,12.06-29.79,10.23A134.4,134.4,0,0,0,475,806.48c-7.83,3.9-15.69,7.83-22.71,13.11,6.93,0,13.89-.06,20.85.18-8.64,5.43-18.87,8.67-26,16.14,3.63.12,10.92.33,14.55.42l-5.34,5.13a151.07,151.07,0,0,1,8.61,13.92c-5.88,5.31-11.82,10.59-17.34,16.29,12.24-1.44,24.42.48,36.63.81-15.66,8-32.37,13.65-49.47,17.7,8.16,4.74,18,2.22,26.94,2.4-6.21,5.37-12.72,10.5-17.76,17-13.35-5.34-27.24-10.14-38.7-19-2.61-.27-5.19-.54-7.74-.78l9.42-1c-11.88-9.75-25.83-16.41-38.13-25.56-5.55-3.63-12.72-4.5-17.16-9.75,14.52,7.56,31.08,7.89,47.07,9-9.69-7.86-21.21-13.56-28.86-23.73,15.33-.09,30.6-2.46,45.9-.18-10-8-22.47-12-32.73-19.62-10.53-7.47-24.63-11-31.14-23.1,15.21,4.59,30.51,9.18,46.35,11.22-5.46-4.92-11.28-9.36-16.83-14.13,11.37-3.54,23-6.24,35-4.47a139.38,139.38,0,0,0-25.17-12.69c-7.68-1.86-15.57,2.46-23.07.69-6-4.89-11.22-10.65-17.07-15.66,4.86,1.32,14.55,4,19.41,5.25-9-8.4-17.64-17.16-24.63-27.3,15,9.27,33.27,8.76,49.95,13-11.79-9.24-25.77-15.42-37.11-25.29-7.56-7-17.88-11.49-22-21.54,13.44,1.89,20.46,16.71,34.29,17.49,11.22-.69,22.38-2.28,33.63-2.76-14.85-7.11-30.12-13.53-43.32-23.52,5.49-2.55,11.07-4.89,16.5-7.56a140,140,0,0,1-30.72-8.4c-13.39-4.69-14.49-20.5-21.56-31.34,3.28,4.51,6.38,9.24,10.76,12.77,7.2,3.36,15.06,5.1,22.65,7.41a56.23,56.23,0,0,1-15.69-24.21c4.68,4.2,9.12,8.67,13.89,12.84.15-1.38.48-4.14.66-5.52-7.2-11.37-17.28-20.73-24.42-32.19-7.05-11.82-16-22.29-24.48-33-4.17-8-5.46-17.13-9.6-25.17-2.07,1-6.24,3.15-8.31,4.17-12.21,20.79-23.88,41.88-36.69,62.28-5.82,9.66-15.72,18-15.54,30.09a128.4,128.4,0,0,1-22.2,7.86A161,161,0,0,0,245,674.54c-13.5,9.18-30.12,12-43.68,21,14.64-1,29.22-2.79,43.89-3.42-14.7,10.38-33.12,10.71-49.41,17.22a150.45,150.45,0,0,1,21.36,9.42c12.09,5.64,25.17-.48,37.62-.9C242,726,225,724,213.42,734.3c-6.12,5.16-13,9.15-20,13.08,12.21.78,24.42.33,36.63,1-9.48,6.42-21.45,4.41-32.22,5.46,3.63,3,7.5,5.64,11.43,8.28-7,2.28-14.34,1.68-21.51,1.08-12.33-1.86-24.54,5.4-31.68,15.06,12.24-2.43,26.31-.48,36.84,5-5.25,14.94-29.46,11.34-35.43,27.42a122.36,122.36,0,0,1,33.75-8.37c-11.13,8.49-25.38,9.87-37.62,15.93,14.64,1.62,29.19,4,43.86,5.46-17.13,7.11-33.54,15.72-48.18,27.21l-.24,3c14.79-1.2,29.76-.3,44.37-3.54-10.71,4.47-22.32,7.92-30.93,16.08-7.23,6.48-15.72,11.31-24.54,15.27.69.63,2,1.92,2.73,2.55,10.68-1.41,21.42-2.52,32.19-3,8.37-.12,16.92-6,24.81-.93-12.84,7.11-28.14,8.58-40.08,17.49-7.08,5.07-15.84,6.45-24,9,1,1,3,2.91,4,3.87a108.76,108.76,0,0,0-8.85,8.19c11.79-2.79,23.46-7.65,35.85-5.79-2.07,3-4.17,6-6.24,9,18.09-5.52,37-7.14,55.11-12.57-14.61,11.22-34,11.7-49.29,21.57-9,5.67-19.47,11.7-22.38,22.77,10.38-10.38,24.6-15.39,39.06-16.2-4,3.51-9.24,4.92-14,7.14,5.1.69,10.2,1,15.33,1.35-4.53,3.27-8.82,7-13.77,9.6-8.31,1.23-16.77,1.92-24.57,5.28-11.31,4.44-24.75,7.68-31.35,18.9,16-8.94,34.35-4.32,51.33-1.44-7.41,4.23-15,8.16-21.78,13.38,2.22-.15,6.72-.51,9-.69-1,2.31-2.88,6.87-3.81,9.18,5.37-4,10.47-8.76,17.28-10-5.79,7.14-12.69,14.16-21.87,16.44-11.1,3-17.64,13.26-24.45,21.63,7.2-1.56,14.52-3.18,21.93-2.1-3.42,2.64-6.87,5.28-10.29,8,8.49-.36,16.95-1.11,25.44-1.26-10.14,10-24.42,3.9-36.87,5.49-9.42,3.63-17.64,10-25.47,16.26,9.3-.54,18.69-1.08,28,.3-12.78,9.24-28.74,14.76-38.34,27.81,10.53-4,21.45-7.59,32.88-7.26,10.62.39,20.52-4.41,31.11-4.38A151.1,151.1,0,0,1,115.2,1092c-17.43,8-31.95,21.54-42.87,37.17,10-.33,14.16-10.86,22.29-15,11.88-2.67,24.18-1.23,36.24-2-10.05,6.24-19.65,15.63-32.37,14.88-.09,1.38-.3,4.11-.39,5.49-10,6.27-21.63,9.42-31.32,16.2-4.17,1.65-3.51,6-3.48,9.63,11.49-1.59,21.87-6.93,32.79-10.47,3.66.9,7.32,1.71,11,2.61-16.44,5.28-34.08,7.62-49.77,14.76l14.79,1.17c-10.5,9.45-24.78,11.88-36.84,18.48,9.69,1,19.47-.3,29.16.93A47.67,47.67,0,0,0,83,1190.33c-13,9.51-28.17,15.39-43.38,20.46,2.31.63,7,1.92,9.27,2.58-10,5.16-20.79,9.12-29.76,16.11,15.81-4,32.07-4.44,48.24-5.88-4.71,3.21-9.48,6.36-14.82,8.46-8,.27-16.86-4.74-23.88,1.08-9.54,7.32-18.54,15.36-28.62,22,13.92-1,27.84.87,41.64,2.55a256.48,256.48,0,0,1-35.52,12.66l0,2.25a175.29,175.29,0,0,0,31.71-2c-8.58,3.75-18,4.5-27.09,6.15,8.49,3.06,17.67,3,26.58,2.94-1.44,1.44-4.38,4.29-5.82,5.73,13.89-3.69,27,.78,40.14,4.95C50.82,1295.81,30,1302,9.9,1310.06c11.37,1,22.86,1,34.17,2.67-7,1-14.1,1.41-21.12,2.34,20.4,7.74,42,12.45,61.83,21.51-10.89,9.51-24.63,14.46-36.57,22.32,14.64.18,29.37.51,43.59,4.44,20.13-.87,40.53-3,59.88-8.85,18.6,2.7,37.71,1.38,54.78-6.93-.93,17.13-1.35,34.8,4.62,51.18-27.27.75-54.3,4.92-81.54,5.7,5.88,6.54,14.16,9.78,22.65,11.52,15.12,3.15,29.19,10.32,44.67,11.91,17.34,2.55,35.34-1.77,52.14,4.71,26.4,8.58,53-4.14,79.77-1.95,24.93,1.56,49.86-3.69,74.73-.3,21.06,2.82,41.91,8.52,63.33,8,33.51-2.76,68-3.93,101,3.6-.12-.81-.33-2.43-.45-3.24-28-9.9-57.54-14.49-85.74-23.85-13.53-4.53-27.81-5.55-41.82-7.44,23-.75,46.17-.3,69-4,18.21-3.12,36,2.85,53.91,5,19.77,2.52,39.66-1.59,59.43.78,17.13,1.92,34.38.3,51.54,2,30.81,4,61.92,7.62,93.06,5.61,16.68-2.52,33.33-5.25,50-7.74-5.7,6.12-15.24,10.77-14.4,20.49-.63,3.42-3.42,8,.63,10.5,8.91,1.08,17.67-1.92,26.49-2.79,26-2.37,52.08-2.7,78.15-2.61,29.82-3.15,59.79-3.15,89.73-5.28,29-2,58,1,87-1.14,33-.45,66,2.13,99.06,2.37,27-2.37,54.06-4.83,81.21-4.74,44-3.54,88.32-2.19,132.12-8.37,36.9-5,74,1.47,110.94,1.5,14,.75,28.11,2.88,42.12.39,28.89-4.71,57.81,2.1,86.73,2.91,25,3,50,.72,75-.93,14,1.11,28.26,2.31,41.76,6.6,10,2.94,20.34.27,30.45-.3,28.89-.66,57.93-.66,86.67-3.81a403.42,403.42,0,0,1,45.24-10.47c21.78-4.83,44.16-1.92,66.18-4.23,22.8-2.49,45.9,2.67,68.58-2.1,16.71-3.45,33.84-6.27,50.82-3,20.88,3.33,42.06,2.46,63.12,3.3-13.53,2-27.33,2.79-40.41,7-26,8.67-53.16,13.5-79.35,21.57-3.69,1-6.84,3.21-9.87,5.4a372,372,0,0,1,100-3.15c34.29,1.41,67.38-12.84,101.79-8.43,23.79,2.76,47.91-1.47,71.55,3.15,16.08,3.15,33,4.26,48.84-.72,16.44-6,34.05-1.65,51-4.35,14.37-1.44,27.45-8.1,41.46-11.16,9.27-2.13,18.93-4.74,25.44-12.24-27.3-.66-54.36-5-81.63-5.64,6-16.38,5.52-34.11,4.62-51.24,9.9,3.72,19.92,8,30.72,8.22,8.88.66,17.76-1.65,26.64-1,9.06,2.7,18.09,5.91,27.69,6.12,12,0,24.09,5,36,1.23,12.06-3.45,24.66-2.58,37.08-3.15-11.88-8-25.74-12.87-36.54-22.53,20.1-8.31,41.16-14.28,61.92-20.79-7-1.38-14-1.89-20.94-2.85,11.22-1.62,22.59-1.71,33.87-2.76-20-8.07-40.83-14-61.44-19.74,13-4.17,26.13-8.58,40-4.86l-5.88-5.67c8.91-.06,18.09.06,26.61-3-9.27-1.59-18.72-2.46-27.51-6a189,189,0,0,0,32.16,1.89l-.09-2.22a262.14,262.14,0,0,1-35.46-12.63c13.8-1.74,27.69-3.57,41.67-2.58-10.11-6.6-19-14.61-28.56-21.93C2568.75,1227.29,2559.78,1232.33,2551.8,1232.09Zm-408.66-388.2a29.67,29.67,0,0,1-11.73,5.88c.78-6.42-5-10.11-8.22-14.7C2129.67,838.34,2136.36,841.22,2143.14,843.89Zm-394.38,267.69c.15-1.26.42-3.78.54-5l4.83,1.53C1752.78,1108.94,1750.11,1110.68,1748.76,1111.58Zm-893.85-5c.15,1.23.45,3.75.6,5-1.38-.9-4.08-2.64-5.43-3.54C851.31,1107.65,853.71,1106.9,854.91,1106.54ZM827,1151.48c6.54,5.16-10.08,8.4-12,4.2C817.47,1152,822.75,1150.58,827,1151.48Zm-29.61-136.77c9-4.65.48,10,0,0Zm-5,232.47c-.09.57-.21,1.65-.27,2.19-3.57-.48-7-1-10.56-1.62C785.19,1247.48,788.79,1247.3,792.42,1247.18ZM472.89,849.8A37.38,37.38,0,0,1,461,844c6.78-2.76,13.5-5.64,20.07-8.88C477.87,839.72,472,843.38,472.89,849.8ZM188.31,954.92c8.94-4.56.3,10,0,0ZM215.88,884c-2.46,4-10.44.72-6.6-3.66C211.68,876.44,219.57,879.74,215.88,884Zm191.31,79.14c.12,2.73-1.26,3.9-4.11,3.48-2.55-2.43-6.78-4.65-7.17-8.4C400.05,957.2,404,960.83,407.19,963.17Zm-17.1,1.41c5.64,2.7,11.31,5.43,17.07,8,6.81-6.63,16.65-2.55,25-3.06-2.4,2.07-4.77,4.11-7.14,6.21.21,3.66.36,7.35.51,11l5.61,2.61c-7,1.32-14.22,3-19.68,8A146.87,146.87,0,0,1,439.56,999c-10,4.11-20.25,7.35-30.45,10.86-5.16-9.81-13.26-17.37-20.67-25.38C388.53,977.81,389.46,971.21,390.09,964.58Zm9.42,87.84c15.21-3.84,29.28-11,44.19-15.72-11.28,9.42-24.72,15.72-37.38,23C403.35,1058,401.55,1055,399.51,1052.42Zm1.53,55.44c9.24-4.2,0,10,0,0ZM395.16,1042c4.2-1.53,5.61-.15,4.26,4.14C395.19,1047.65,393.78,1046.27,395.16,1042Zm-2.67-12.15c-.12-2.28-.3-6.81-.42-9.09,3.57,1.71,7.14,3.39,10.74,5.07C399.36,1027.19,395.91,1028.51,392.49,1029.86Zm19.59-15.9a211.43,211.43,0,0,1,28.08-4.23C432.48,1015.19,418.05,1027.4,412.08,1014ZM403,1091.9c-3.69,2.28-7.38,4.62-11,6.93q-4.73-5.44-9.54-10.77A58.09,58.09,0,0,0,403,1091.9ZM302.37,619.79c4.32-.48,4.14,7.05,1.59,9.12C299.64,629.36,299.82,621.86,302.37,619.79Zm-57.3,35.88c-1.56-1.2-3.09-2.4-4.62-3.6,10.5-8,19.77-17.49,30.81-24.81C268.05,640.73,258,651,245.07,655.67ZM397.2,1397.75c-11.25,5.13-23.7.81-35.49.63a338.53,338.53,0,0,0-81.72.3c5.64-18.45,2.85-38.16,4.41-57.15,16.92.87,32.79,9.9,50,6.84,21-2.73,42.18-.93,63.18-3.3-2.16,1.08-4.35,2.1-6.54,3.12-18.33,1.56-36.45,4.71-54.78,6.18,10,3.87,20.88,3.48,31.41,3.9,30.15,1.26,60.45,3.51,90.54.48a225.06,225.06,0,0,0,3.69,23.64C439.77,1384.85,417.9,1389.56,397.2,1397.75Zm58.14-416.13c9-4.41.15,10,0,0Zm4.47-34.38a23.28,23.28,0,0,1,16.83-6.57C471.6,944.12,465.66,945.77,459.81,947.24Zm-10.05-36.3c7.92,0,15.87-.18,23.79-.15-1,1.35-2.91,4.05-3.9,5.4-10.86,1.77-21.87,1.83-32.82,2.52,4.77,2.28,9.66,4.32,14.49,6.45-5.13,1.32-10.29,2.58-15.45,3.9-1.53-.87-4.62-2.58-6.15-3.45,1.38,9.3,12.15,7.89,19,9.72-5.52,2.4-11.1,4.71-16.53,7.41,6.78,1.47,13.71.66,20.55.51-6.66,4.59-14.61,7.47-20.31,13.38l13.29-.18c-10.32,3.87-21.15,6-31.74,8.91A121,121,0,0,1,399.6,949c11.49,3,22-5.4,33.51-1.86-13-7.41-19.86-21.9-33.69-28.05l-.24-4.68c15.48-1.92,31.11.3,46.56-1.29,3.93-3.18,7.11-7.11,10.95-10.35,9.51-4.77,20.31-6.12,30.75-7.38C474.54,899.51,460.71,902.39,449.76,910.94Zm259.71,243.3c-10.35-.36-20.7-.33-31.05-.6-2.4-2.19-4.8-4.32-7.23-6.42C683.55,1151.39,696.51,1153.13,709.47,1154.24ZM677.91,1219c4.2-1.14,5.67.39,4.38,4.59C678.06,1224.65,676.62,1223.15,677.91,1219Zm-3.24-24.36c9-4.47.24,10,0,0Zm-4-35.1a124.58,124.58,0,0,1,20.76,6C684.06,1165.13,676.17,1165.25,670.65,1159.52Zm7.44-29.22c3-3.66,11.25-4.14,15.45-1.44C691.44,1133.9,682.38,1132,678.09,1130.3ZM694.44,1081q-6.12,3.46-12.06,7.26a49.39,49.39,0,0,1-12.51-8C678,1078.91,686.28,1080,694.44,1081Zm-19.59,11.76c5,2.7,10.47,4.68,14.82,8.49-7.47-2.13-14.64-5.19-22-7.71C670.08,1093.28,672.45,1093,674.85,1092.8Zm-15,205.5c-3.09,2.79-6.42,5.34-9.75,7.83-3.24-2.85-6.48-5.64-9.69-8.49C646.89,1297.73,653.37,1297.85,659.85,1298.3Zm5.43,24.18A69.76,69.76,0,0,1,643.2,1319C650.67,1319.12,658.38,1319.15,665.28,1322.48ZM656.34,1139c2.76-2,9.21.54,7.56,4.53C661.14,1146.35,655.32,1142.57,656.34,1139Zm2.22,99.24c-4.2,1-5.73-.54-4.56-4.62C658.26,1232.51,659.76,1234,658.56,1238.24Zm-3.33-8.73a55.84,55.84,0,0,1-14.85-6.9C646.77,1221.11,651.57,1224.47,655.23,1229.51Zm-25.77,85.17c9.06-4.38.12,10,0,0ZM627.69,1014c-4,2.43-11.46-2.25-10.29-6.87C621.33,1005.83,628.35,1009.4,627.69,1014ZM623,881.36c-10.29-1-24.54,3.9-30.24-7.65C602.61,877.28,612.81,879.41,623,881.36Zm-21.69,79.23c7,6.06,16.95,7.8,22.89,15.27-8.94-2.25-20.64-5.28-24.54-14.58a80.87,80.87,0,0,1-10.32-10.2C593.67,953.84,597.42,957.35,601.35,960.59ZM522.66,1368c-.78-5.25-1.71-10.47-2.67-15.6,11.19,2.85,22.44.81,33.57-1.17,14,1,27.63,5.64,41.73,4.11,19.41-2.22,39-1.62,58.47-.63-14.67-8.82-32.55-9.87-48.27-16.44,11.34.12,22.77-.66,33.66-4,27.21-8.34,56.07-5.31,83.7-1.11a136.18,136.18,0,0,0-4,28.47c-20.07-2.7-40.2-.24-60.3-.21C613.2,1360.79,568,1365.71,522.66,1368Zm300.48,35c-30.93-3.09-61.23-12.24-92.58-9.78-38-3.33-76.23-4.11-114.27-7.38-14.19-1.14-28.47,1.35-42.6-.81,33.12-3.21,66.51-.93,99.66-4.38,21-2.25,42.18-.69,63.12,1.86,16.14,2,32.19-1.86,48.36-1.65,18.57-.57,36.57,5.16,55.08,5.82C834.24,1392,828.57,1397.36,823.14,1403Zm94.56,5.64c-25.08-2.73-51.57-6.75-75.54,3.75,19.2-13.23,39.51-24.87,58-39.15,26.58-21.12,44.64-50.19,64.92-76.83,7.65-10.26,18-18.42,24-29.88,3.63-7,6.21-14.49,8.67-21.93-8.61,9.66-15.81,20.49-24.93,29.73-16.8,16.74-27,38.7-43.47,55.74-12.36,14.91-27.3,27.36-43.11,38.46,28.92-32,57.69-64.65,79.83-101.88,22-39.9,45.81-78.84,65.1-120.18,15.12-28.17,27.09-57.84,40.41-86.85-11,43.32-20.64,87.18-36.78,129-9.93,23.91-16.53,49.08-27.39,72.63-8.22,21.09-20.37,40.29-29,61.17-8.49,18.12-16.29,38.07-33.27,50.07C933.84,1382.24,918.18,1392.08,917.7,1408.61Zm165-218.37c-9.69,37.86-21.69,76.17-46.14,107.4,18.84-12.75,29.25-34.44,42-52.77-.6,5.55-1.35,11.1-2,16.68-14.55,16.77-26.61,35.4-38.73,53.94-11.85,17.61-28.14,31.32-43.62,45.54,20.31-6.78,37-20.67,55.05-31.71-4.74,15.45-22.5,17.34-31.62,29.1-12.87,14.28-28.56,25.29-44.43,35.88,15.42-1.65,29.4-8.88,42.93-16-8.4,7.86-17.1,15.78-27.54,20.82-17.16,1.23-34.41-1.35-51.6-.15,10.08-13.32,25.65-21.45,34.38-35.91,13.83-22.8,24.45-47.37,37.74-70.47,15.36-28.44,24.54-59.64,36.93-89.37,8.64-21.45,15.57-43.53,22.5-65.58,10.32-14.49,14.64-32.4,21.72-48.6-2.76,44.52-11.76,89.1-29.55,130.11,16.86-17.61,21-43.08,31.77-64.32C1091.49,1167.23,1085.16,1178.21,1082.67,1190.24Zm898.47-309c10.17-1.86,20.43-3.75,30.09-7.71-1.77,2.4-3.48,4.86-5.16,7.29C1997.73,881.06,1989.42,881.63,1981.14,881.27Zm18.63,433.11c-1.89,3.54-7.53,4.5-10.71,2.31C1988.4,1312.37,1998.66,1309.85,1999.77,1314.38Zm-9.18-347.64c.93,7.44-6.12,8.52-11.46,10.26A123.78,123.78,0,0,1,1990.59,966.74Zm-3.69,40.47c1.11,4.65-6.39,9.21-10.32,6.78C1975.92,1009.46,1983,1005.8,1986.9,1007.21Zm-16.29,307.41c9-4.47.24,10,0,0Zm-6.72-92.37a43.75,43.75,0,0,1-14.73,7.2C1952.76,1224.53,1957.47,1221.08,1963.89,1222.25Zm-13.62,11.4c1.08,4.11-.48,5.64-4.62,4.56C1944.48,1234,1946,1232.48,1950.27,1233.65Zm13.59,63.93c-3.21,2.88-6.45,5.7-9.66,8.55-3.39-2.49-6.75-5-9.87-7.74C1950.81,1297.88,1957.32,1297.73,1963.86,1297.58Zm-17.61-159.27c4.68,1.2-1.08,7.11-4,6.24C1936.83,1142.84,1942.77,1137.23,1946.25,1138.31ZM1961,1319.06a73.35,73.35,0,0,1-22,3.51C1945.86,1319.18,1953.54,1319.09,1961,1319.06Zm-35.58-124.5c9.21-4-.27,10,0,0Zm.84,28.65c-4.26,1.47-5.61.09-4.08-4.14C1926.45,1217.57,1927.8,1219,1926.3,1223.21Zm-12.93-57.06c6.15-3.72,13.29-5.28,20.28-6.81C1928.16,1164.59,1920.54,1165.4,1913.37,1166.15Zm1.17-64.92c4.53-3.69,10.08-5.73,15.18-8.52,2.25.3,4.53.66,6.81,1C1929.15,1096.13,1922,1099.22,1914.54,1101.23Zm16.68,3.54c8.76-4.86.63,10,0,0Zm-4.92,25.44c-4.32,1.77-13.53,3.66-15.57-1.38C1915,1126.37,1923.27,1126.58,1926.3,1130.21Zm8.19-49.74a67.37,67.37,0,0,1-12.48,7.8q-6-3.64-12-7C1918.05,1080,1926.33,1078.76,1934.49,1080.47Zm-1.59,66.87q-3.6,3.06-7,6.3c-10.32.27-20.64.24-30.9.63C1907.79,1153.13,1920.63,1151.39,1932.9,1147.34ZM1802.52,1014.8c8.79-4.95.84,9.93,0,0Zm-665.85-96.57c5.49,22.47,14.22,44,19.2,66.66a657.24,657.24,0,0,0,23,80.52c11.79,32.13,18,65.91,29.28,98.19-8.55-6.57-14.25-15.78-19.74-24.84a251.82,251.82,0,0,1-27.48-63.21l1.41-1.08,1.65-1.53C1143.93,1024.19,1136.19,970.73,1136.67,918.23Zm152,458.79c-9.81-.51-20.61,1.8-29.64-3-7.11-6.54-12-15.06-18-22.56,12.63,5.43,25.83,10.38,39.81,10.29-21.48-9.45-41.88-22.56-56.49-41.22-2.07-3.6-3.18-7.56-4.56-11.37,18.45,13.56,37.05,27.3,57.75,37.38-8-10-19.5-16.41-28.32-25.62-19.11-16.83-32.88-38.55-44.28-61.11,15.66,13,29.55,28.56,47.49,38.61-30-30.3-60.45-63.78-70.86-106.32,14.52,15.66,26.76,34.59,45.63,45.42a303.77,303.77,0,0,1-45.39-68.52c-6.6-16.26-16.38-31.47-18.48-49.26,11,14.34,22.11,28.89,36,40.65,3.15,3.12,9.66,2.07,10.59,7.35,9.15,27.45,23.7,52.56,35.46,78.9A743.85,743.85,0,0,0,1312,1348c9.6,12,21.24,22,31.29,33.63C1324.89,1382.57,1307.13,1375.79,1288.71,1377Zm162.06-14.82c-17.58-7.38-26.79-25.32-40.59-37.5-19.56-17.58-34.92-39-53-58.08-15.09-16.08-27.39-34.44-41.55-51.3a673.39,673.39,0,0,1-50.85-72.15c5.88,19.56,17.79,36.48,27.45,54.3,9.84,16,16.5,34,28.74,48.48,17.52,21.45,34.86,43,51.27,65.4,12.45,17.46,29.22,31.17,42.54,47.91,7.89,10.14,18.72,17.19,30.12,22.8-22.77-2.67-45.72-2.52-68.52-.63-6.09-8.79-16.44-12.54-24.12-19.5a254.85,254.85,0,0,1-45.66-50.55c-30.48-39.51-54.3-83.64-75.63-128.64-10-22.35-17.61-45.69-23.85-69.33-11.07-41.07-25.05-81.36-34.29-122.94-7.29-34.41-19.65-67.5-26.94-101.91,18.12,34.23,34,69.78,55,102.39,15.42,25.44,28.32,52.5,46.68,76,19.8,25.56,35.88,53.88,57.27,78.24,17.76,20.31,32.16,43.2,49.14,64.11,11.16,13.53,18.42,29.67,28.59,43.89,15.42,21.48,28.32,45.21,48.69,62.61,13.86,14.67,33.78,21.63,47.07,36.9,10.71,11.79,21.81,23.22,34.8,32.52C1493.28,1375.22,1471.2,1370.93,1450.77,1362.2Zm101-145.71c13.23,18.48,32.79,30.9,47.55,48.09,14.4,16.77,34.17,27.84,47.94,45.21,20.94,27.36,49.68,47,73.92,71.16a115.33,115.33,0,0,1-26-13.83c-16.92-12.78-35.58-22.92-54.24-32.88-17.37-9.81-31.89-24.21-50-32.61,7.29,9.12,16.35,16.65,24.18,25.32,11.67,12.15,21.81,26.16,36.39,35.13-17-6.51-34.56-12-50.34-21.3-24.27-14.19-45.45-33-69.51-47.46-28.89-17.73-58.29-34.59-87.06-52.47,8,9.57,18.72,16.26,28.5,23.85,34.86,25.86,67.29,54.78,99.78,83.52,15.15,13,33.21,22.23,51.81,29.31,16.89,6.06,33.33,13.56,51,17.13-44.49-3.12-88.83-8.94-132.09-20-29.55-5.61-51.54-28.11-72.48-48-13.86-21.6-34.35-37.68-48.51-59-11.22-16.74-24-32.4-34.77-49.47-12.84-20.7-29.55-38.61-44.19-58-15-20-33-37.65-46.59-58.71-13.35-20.25-29.07-38.73-42.78-58.71-24.24-39-51.12-76.62-71-118.14-13-24.39-25.86-48.9-36-74.61,30,17.52,62.07,31.29,91.95,49.08,29.25,16.71,59.28,32,90.78,44.13,46.62,17.31,94.5,34,144.69,35.91,17.46-.42,33.93,6.06,50.55,10.5,13.2,5,25.95,14.19,30.57,28.14,10.26,27.24,19.11,55.2,33.15,80.85,10.62,18.72,17.73,39.15,27.93,58.11,9.48,18.33,14.58,38.58,24,56.91,10.29,17.22,17.64,36,28.8,52.77,11.82,17.31,19,37.53,32.31,53.88a182.74,182.74,0,0,1,21.66,32.82c-23-21-48.72-39.18-68.7-63.24-12.9-14.16-29.07-24.72-42.3-38.55a413.4,413.4,0,0,0-49.74-43.56c-23-18.81-45.87-38-69.6-55.89a42.56,42.56,0,0,0-9.72-5.31C1507.23,1169,1531.62,1190.87,1551.81,1216.49Zm172.62,99.78c-8.34-10.44-16.14-21.36-22.23-33.27,18.45-.87,37-.06,55.11,3.81-13.11,4.74-26.7,9.9-40.86,8.88,7,6.45,17.13,3.3,25.71,4,9.21,4.08,19.41,4.23,29.25,5.58,13.14,1.38,25.65,6.72,39,6.54,7.17-.45,14,2,20.67,4.26a329.16,329.16,0,0,1-6.75,50.52c-20.49.6-41.13,2.73-60.57,9.66C1746.9,1358.81,1739.16,1335.2,1724.43,1316.27Zm251,70.56c-28.86,2.7-58,2-86.73,5.58-19,2-38.37-.81-57.27,2.73-13.77,2.64-27.57,5.16-41.52,6.57-5.52-5-11.07-10-15.81-15.69,14.22-1.65,28.2-5.4,42.6-5.19,18.15-.54,36.18,4.05,54.33,1.35a269.23,269.23,0,0,1,65.73-1.08c33.78,2.91,67.71,1.29,101.55,2.25C2017.47,1386.77,1996.32,1384.31,1975.41,1386.83Zm106.14-18.78c-44.31-2.4-88.53-7.08-132.93-6.6-21.09.18-42.24-2.67-63.27.21,0-16.38-5-32.07-8.52-47.88,6.9-1.5,13.8-3.15,20.7-4.8a58.21,58.21,0,0,0,38.88,11c-8,6.33-18.78,4.26-27.6,8.61,16.26,1.2,32.91-.42,48.87,3.69,13.38,3.54,27.36,8,41.28,4.56-14.73,9.39-33.84,8.25-48.36,17.94,20.4-1.26,41-1.47,61.32.78,24.15.3,48.42-10.35,72.42-2.82C2083.29,1357.82,2082.3,1362.89,2081.55,1368.05Zm154-413c-3,8.67-5.52,18.21-12.84,24.33-10.44,9-21.09,18.15-27.57,30.57-10.23-3.54-20.55-6.84-30.6-10.86a146.2,146.2,0,0,1,28.29-1.71c-5.49-4.92-12.66-6.66-19.62-8,1.38-.66,4.14-2,5.52-2.58.09-3.66.27-7.29.51-10.92l-6.69-6.33c6.63-.27,13.29-.54,20-1,4.53-5.16,10.62-8.52,16.77-11.4-5.16,5.4-10.8,10.38-15.75,16C2208.33,969,2221.08,959.9,2235.6,955Zm-30.9,97.35c-2.13,2.67-4.29,5.31-6.39,8-12.33-8.25-26.43-13.83-37.65-23.67C2175.48,1041.47,2189.52,1048.55,2204.7,1052.36Zm-40.47-42.66c9.39.87,18.66,2.46,28,3.87-2.19,2.37-3.21,6.3-6.66,7.11C2177.43,1019.48,2170.56,1014.59,2164.23,1009.7Zm37.26,82.14a57.12,57.12,0,0,0,20-3.63q-4.63,5.31-9.15,10.74C2208.69,1096.58,2205.06,1094.21,2201.49,1091.84Zm-2.52,16.08c9.09-4.59.39,9.93,0,0Zm7.77-65.91c10,.72-4.89,8.79,0,0Zm7.92-7.38c-3.51-4.08-8.07-6.81-12.87-9a185,185,0,0,0,22.17-10.89C2220.66,1021.28,2217.54,1027.91,2214.66,1034.63Zm-37.95-121c12.06-.48,24.12.63,36.21.27-7.65,6.06-17.52,9.18-23.7,17.07-4.92,6.51-11.43,11.43-18,16.14,11.52-3.45,22,4.74,33.48,1.95a130.4,130.4,0,0,1-14.37,16.32c-10.59-2.85-21.36-5-31.65-8.85H2172c-6.12-5.61-13.86-8.79-20.73-13.26,6.9.15,13.86,1,20.76-.54-5.46-2.67-11-5-16.62-7.23,6.87-2,17.76-.48,19-9.87-1.47.87-4.44,2.55-5.91,3.39q-7.78-1.85-15.48-3.66c4.74-2.25,9.57-4.35,14.34-6.69-12.75-2.31-28.83,2.79-38.79-7.35,8.64-.69,17.34-.42,26-.3C2161.5,914.48,2169.27,913.73,2176.71,913.61Zm-32.22,68.07c8.79-4.8.54,10,0,0Zm9.63-72.75a300.5,300.5,0,0,0-37.29-13.8C2129.7,897.62,2145.48,897.41,2154.12,908.93Zm-9.66,38.37c-5.88-1.53-11.82-3.21-16.83-6.72A23.5,23.5,0,0,1,2144.46,947.3Zm71.31,453c-25.14-8.67-50.82-16.71-77.61-18.12a97,97,0,0,0-3.18-25.11c25.56,4.62,51.63,2.91,77.46,2.43,18.54-1.92,37.47-.09,55.71-4.41-18.15-3-36.54-5-54.87-6.93-2.25-1-4.44-2-6.57-3.12,14.94,2,30,1,45,1.89,14,.24,28.35,4.26,42.12-.21a142.33,142.33,0,0,1,26.07-5.22c1.56,19-1.26,38.7,4.44,57.15C2288.19,1393.25,2251.89,1397.72,2215.77,1400.33Zm117.27-773c10.89,7.32,20.34,16.47,30.48,24.81q-2.11,1.8-4.14,3.6C2346.36,651.11,2336.25,640.82,2333,627.29Zm55,252.57c2.82-3.3,10,.6,7.35,4.74C2392.47,887.81,2385.3,883.94,2388,879.86Zm23.76,75.24c8.73-5,.75,10,0,0Z"/><path d="M1178.16,1095.83a125.07,125.07,0,0,0-9.66-15.69l-2.43.87C1167,1087.64,1173.6,1091.6,1178.16,1095.83Z"/><path d="M460.71,1471.13c-19-1.53-37.86-4.5-56.91-5.52-29.28-1.8-57.93,6.57-87.06,7.32-43.32-.9-86.43,3.84-129.51,7.47-9.9,1-20.19-.51-29.79,2.7,20.85,3.57,42.27,3.39,62.79,8.91,17.76,4.71,36.21,2.91,54.33,2.61,28-1.47,56,2.43,84,.57,34-1.32,68.07.09,102.09-.3,34-3.06,68,3.09,102.09,0,4.95.33,8.1-3.69,11.49-6.51-16.89-7.14-35.61-6.66-53.52-8.28C500.37,1479.23,481,1472.24,460.71,1471.13Z"/><path class="cls-2" d="M304,628.91c2.55-2.07,2.73-9.6-1.59-9.12C299.82,621.86,299.64,629.36,304,628.91Z"/><path class="cls-3" d="M209.28,880.37c-3.84,4.38,4.14,7.68,6.6,3.66C219.57,879.74,211.68,876.44,209.28,880.37Z"/><path class="cls-3" d="M2395.35,884.6c2.67-4.14-4.53-8-7.35-4.74C2385.3,883.94,2392.47,887.81,2395.35,884.6Z"/><path class="cls-4" d="M188.31,954.92c.3,10,8.94-4.56,0,0Z"/><path class="cls-4" d="M2411.76,955.1c.75,10,8.73-5,0,0Z"/><path class="cls-5" d="M1931.22,1104.77c.63,10,8.76-4.86,0,0Z"/><path class="cls-5" d="M455.34,981.62c.15,10,9-4.41,0,0Z"/><path class="cls-5" d="M2144.49,981.68c.54,10,8.79-4.8,0,0Z"/><path class="cls-6" d="M1986.9,1007.21c-3.93-1.41-11,2.25-10.32,6.78C1980.51,1016.42,1988,1011.86,1986.9,1007.21Z"/><path class="cls-6" d="M617.4,1007.12c-1.17,4.62,6.33,9.3,10.29,6.87C628.35,1009.4,621.33,1005.83,617.4,1007.12Z"/><path class="cls-7" d="M1802.52,1014.8c.84,9.93,8.79-4.95,0,0Z"/><path class="cls-7" d="M797.37,1014.71c.48,10,9-4.65,0,0Z"/><path class="cls-8" d="M399.42,1046.15c1.35-4.29-.06-5.67-4.26-4.14C393.78,1046.27,395.19,1047.65,399.42,1046.15Z"/><path class="cls-9" d="M2206.74,1042c-4.89,8.79,10,.72,0,0Z"/><path class="cls-10" d="M401,1107.86c0,10,9.24-4.2,0,0Z"/><path class="cls-10" d="M2199,1107.92c.39,9.93,9.09-4.59,0,0Z"/><path class="cls-11" d="M693.54,1128.86c-4.2-2.7-12.45-2.22-15.45,1.44C682.38,1132,691.44,1133.9,693.54,1128.86Z"/><path class="cls-11" d="M1910.73,1128.83c2,5,11.25,3.15,15.57,1.38C1923.27,1126.58,1915,1126.37,1910.73,1128.83Z"/><path class="cls-12" d="M674.67,1194.62c.24,10,9-4.47,0,0Z"/><path class="cls-12" d="M1925.46,1194.56c-.27,10,9.21-4,0,0Z"/><path class="cls-13" d="M682.29,1223.57c1.29-4.2-.18-5.73-4.38-4.59C676.62,1223.15,678.06,1224.65,682.29,1223.57Z"/><path class="cls-13" d="M1922.22,1219.07c-1.53,4.23-.18,5.61,4.08,4.14C1927.8,1219,1926.45,1217.57,1922.22,1219.07Z"/><path class="cls-14" d="M1945.65,1238.21c4.14,1.08,5.7-.45,4.62-4.56C1946,1232.48,1944.48,1234,1945.65,1238.21Z"/><path class="cls-14" d="M658.56,1238.24c1.2-4.2-.3-5.73-4.56-4.62C652.83,1237.7,654.36,1239.26,658.56,1238.24Z"/><path class="cls-15" d="M1989.06,1316.69c3.18,2.19,8.82,1.23,10.71-2.31C1998.66,1309.85,1988.4,1312.37,1989.06,1316.69Z"/><path class="cls-16" d="M1970.61,1314.62c.24,10,9-4.47,0,0Z"/><path class="cls-16" d="M629.46,1314.68c.12,10,9.06-4.38,0,0Z"/></g></g></svg>