<svg xmlns="http://www.w3.org/2000/svg" viewBox="0 0 349.9 419.67"><defs><style>.cls-1{fill:#faa21b;}.cls-1,.cls-2{fill-rule:evenodd;}.cls-2,.cls-3,.cls-4{fill:#fff;}.cls-3{font-size:243.69px;font-family:TimesNewRomanPSMT, Times New Roman;}</style></defs><g id="Capa_2" data-name="Capa 2"><g id="Layer_1" data-name="Layer 1"><path class="cls-1" d="M175,419.67,87.47,375.35,0,331V88.64L87.47,44.32,175,0l87.47,44.32L349.9,88.64V331l-87.48,44.32L175,419.67Z"/><path class="cls-2" d="M175,390.43l146.1-74V103.27L175,29.24l-146.1,74V316.41l146.1,74Zm0-14.62L43.28,309.1V110.57L175,43.86l131.67,66.71V309.1Z"/><text class="cls-3" transform="translate(88.52 308.46) scale(1.18 1)">2</text><path class="cls-4" d="M251.29,151.13a56.73,56.73,0,0,1-6.66,4.55,10.44,10.44,0,0,1-4.33.91,8,8,0,0,1-5.89-2.35,8.45,8.45,0,0,1-2.31-6.18,7.57,7.57,0,0,1,1.13-4.19,14.64,14.64,0,0,1,5.36-4.62,84.66,84.66,0,0,1,12.7-5.28v-1.3c0-3.3-.54-5.56-1.64-6.79a6,6,0,0,0-4.76-1.84,5.48,5.48,0,0,0-3.76,1.23,3.62,3.62,0,0,0-1.43,2.81l.07,2.1a3.49,3.49,0,0,1-.88,2.56,3.07,3.07,0,0,1-2.31.91,3,3,0,0,1-2.28-.94,3.6,3.6,0,0,1-.89-2.57q0-3.1,3.32-5.71t9.29-2.6a16.82,16.82,0,0,1,7.53,1.48,6.92,6.92,0,0,1,3.27,3.51q.68,1.55.68,6.36v11.23a48.13,48.13,0,0,0,.19,5.8,2.36,2.36,0,0,0,.62,1.43,1.52,1.52,0,0,0,1,.36,2.2,2.2,0,0,0,1.05-.25,24.46,24.46,0,0,0,3.05-2.64v2q-4.21,5.42-8.05,5.42a3.74,3.74,0,0,1-2.94-1.23C251.69,154.5,251.32,153.11,251.29,151.13Zm0-2.35v-12.6a73.23,73.23,0,0,0-7.34,3.07,12.5,12.5,0,0,0-4.25,3.32,6.28,6.28,0,0,0-1.28,3.79,6,6,0,0,0,1.62,4.32,5,5,0,0,0,3.72,1.72Q246.63,152.4,251.29,148.78Z"/></g></g></svg>