<svg xmlns="http://www.w3.org/2000/svg" viewBox="0 0 764.18 764.18"><defs><style>.cls-1{fill:none;}.cls-2{fill:#efeeee;}</style></defs><g id="Capa_2" data-name="Capa 2"><g id="Layer_1" data-name="Layer 1"><rect class="cls-1" width="764.18" height="764.18"/><path class="cls-2" d="M545.19,478.57h-340a4.59,4.59,0,0,1-4.6-4.59V368.3A174.62,174.62,0,0,1,353,195.12a23,23,0,1,1,44.34,0A174.62,174.62,0,0,1,549.79,368.3V474A4.59,4.59,0,0,1,545.19,478.57Zm-335.4-9.19H540.6V368.3c0-86.17-64.63-157-150.35-164.71a4.59,4.59,0,0,1-3.45-7.05,13.78,13.78,0,1,0-23.2,0,4.59,4.59,0,0,1-3.46,7.05C274.43,211.32,209.8,282.13,209.8,368.3V469.38Z"/><path class="cls-2" d="M499.25,478.57H251.15a4.59,4.59,0,0,1-4.6-4.59v-82.3c0-17.95,16.58-32.56,37-32.56H466.88c20.38,0,37,14.61,37,32.56V474A4.58,4.58,0,0,1,499.25,478.57Zm-243.51-9.19H494.65v-77.7c0-12.89-12.45-23.38-27.77-23.38H283.52c-15.32,0-27.78,10.49-27.78,23.38Z"/><path class="cls-2" d="M343.21,446.38c-9.79,0-19.46-3.94-28.84-11.75-12.49-10.42-26.4-13.59-41.32-9.44a55.75,55.75,0,0,0-19,9.44,4.6,4.6,0,0,1-5.89-7.07,65.5,65.5,0,0,1,22.39-11.23c12.38-3.44,31-4.28,49.66,11.23,8.79,7.33,17.67,10.51,26.36,9.42,14.79-1.83,24.77-15.34,24.86-15.47a4.6,4.6,0,0,1,7.46,5.38c-.5.69-12.31,16.82-31.09,19.2A36.09,36.09,0,0,1,343.21,446.38Z"/><path class="cls-2" d="M407.19,446.38a36.09,36.09,0,0,1-4.63-.29c-18.79-2.38-30.6-18.51-31.09-19.2a4.6,4.6,0,0,1,7.46-5.37c.09.12,10.06,13.63,24.85,15.46,8.69,1.09,17.57-2.09,26.36-9.42,18.62-15.51,37.29-14.67,49.67-11.23a65.39,65.39,0,0,1,22.38,11.23,4.59,4.59,0,0,1-5.87,7.07h0c-1.24-1-30.63-24.73-60.29,0C426.65,442.44,417,446.38,407.19,446.38Z"/><path class="cls-2" d="M577.36,506.14H186.82a18.38,18.38,0,1,1,0-36.76H577.36a18.38,18.38,0,0,1,0,36.76ZM186.82,478.57a9.19,9.19,0,0,0,0,18.38H577.36a9.19,9.19,0,0,0,0-18.38Z"/><path class="cls-2" d="M490.06,598H269.52a23,23,0,0,1,0-45.95h10.11a49.67,49.67,0,0,0,49.62-49.62v-.91a4.6,4.6,0,0,1,4.6-4.6h91.88a4.6,4.6,0,0,1,4.6,4.6v.91A49.67,49.67,0,0,0,480,552.08h10.11a23,23,0,0,1,0,45.95ZM269.52,561.28a13.78,13.78,0,1,0,0,27.56H490.06a13.78,13.78,0,1,0,0-27.56H480a58.89,58.89,0,0,1-58.69-55.14H338.33a58.9,58.9,0,0,1-58.7,55.14Z"/><path class="cls-2" d="M407.36,561.28a4.59,4.59,0,0,1-4.59-4.6V538.31a4.59,4.59,0,1,1,9.18,0v18.37A4.59,4.59,0,0,1,407.36,561.28Z"/><path class="cls-2" d="M379.79,561.28a4.6,4.6,0,0,1-4.59-4.6V538.31a4.6,4.6,0,1,1,9.19,0v18.37A4.6,4.6,0,0,1,379.79,561.28Z"/><path class="cls-2" d="M352.23,561.28a4.6,4.6,0,0,1-4.6-4.6V538.31a4.6,4.6,0,1,1,9.19,0v18.37A4.6,4.6,0,0,1,352.23,561.28Z"/><path class="cls-2" d="M453.3,368.3a4.59,4.59,0,0,1-4.59-4.59V331.55A27.6,27.6,0,0,0,421.15,304H324.87a27.6,27.6,0,0,0-27.57,27.57v32.16a4.6,4.6,0,0,1-9.19,0V331.55a36.8,36.8,0,0,1,36.76-36.76h96.28a36.8,36.8,0,0,1,36.75,36.76v32.16A4.59,4.59,0,0,1,453.3,368.3Z"/><path class="cls-2" d="M356.82,304a27.57,27.57,0,1,1,27.57-27.57A27.6,27.6,0,0,1,356.82,304Zm0-46a18.38,18.38,0,1,0,18.38,18.38A18.41,18.41,0,0,0,356.82,258Z"/><path class="cls-2" d="M393.58,304A18.38,18.38,0,1,1,412,285.6,18.4,18.4,0,0,1,393.58,304Zm0-27.57a9.19,9.19,0,1,0,9.19,9.19A9.2,9.2,0,0,0,393.58,276.41Z"/><path class="cls-2" d="M277.8,271.86h0a9.19,9.19,0,0,1,10.05,8.23h0a9.19,9.19,0,0,1-8.22,10.06h0a9.18,9.18,0,0,1-10.06-8.23h0A9.19,9.19,0,0,1,277.8,271.86Z"/><path class="cls-2" d="M470.77,281.05h0a9.18,9.18,0,0,1,10.05,8.23h0a9.18,9.18,0,0,1-8.23,10.06h0a9.18,9.18,0,0,1-10-8.23h0A9.2,9.2,0,0,1,470.77,281.05Z"/><path class="cls-2" d="M498.34,327h0a9.2,9.2,0,0,1,10.06,8.23h0a9.2,9.2,0,0,1-8.24,10.06h0a9.18,9.18,0,0,1-10.05-8.23h0A9.19,9.19,0,0,1,498.34,327Z"/><path class="cls-2" d="M241,327h0a9.19,9.19,0,0,1,10.06,8.23h0a9.2,9.2,0,0,1-8.23,10.06h0a9.2,9.2,0,0,1-10.06-8.23h0A9.19,9.19,0,0,1,241,327Z"/><path class="cls-2" d="M200.6,258A18.38,18.38,0,1,1,219,239.65,18.39,18.39,0,0,1,200.6,258Zm0-27.56a9.19,9.19,0,1,0,9.19,9.18A9.19,9.19,0,0,0,200.6,230.47Z"/><path class="cls-2" d="M554.38,239.65a23,23,0,1,1,23-23A23,23,0,0,1,554.38,239.65Zm0-36.75a13.79,13.79,0,1,0,13.79,13.78A13.8,13.8,0,0,0,554.38,202.9Z"/></g></g></svg>