<svg xmlns="http://www.w3.org/2000/svg" xmlns:xlink="http://www.w3.org/1999/xlink" viewBox="0 0 638.39 380.25"><defs><style>.cls-1{fill:url(#New_Gradient_Swatch_copy_136);}</style><linearGradient id="New_Gradient_Swatch_copy_136" x1="136.22" y1="158.6" x2="515.26" y2="158.6" gradientUnits="userSpaceOnUse"><stop offset="0" stop-color="#f69323"/><stop offset="1" stop-color="#f15c2b"/></linearGradient></defs><g id="Capa_2" data-name="Capa 2"><g id="Layer_1" data-name="Layer 1"><path class="cls-1" d="M397.62,76l72.83-8.79a189.54,189.54,0,0,0-241-40.92l54.56,6.58-69.14,3a189.9,189.9,0,0,0-70.44,98.28l102.2,12.33-106.52,4.55a190.81,190.81,0,0,0-3.93,38.58,188.75,188.75,0,0,0,39.72,116.1l10.57-5v9c65.26-74.3,121.21-181.63,127-192.85L305,99.35l10.5-5.25,3.69,8,3.68-8,10.5,5.25-8.47,17.45c5.77,11.22,61.72,118.56,127,192.85v-9l13.71,6.51.18,10.1A189.54,189.54,0,0,0,480.05,79.47Z"/><ellipse cx="319.2" cy="371.68" rx="170.67" ry="8.57"/><ellipse cx="319.2" cy="345.26" rx="319.2" ry="8.57"/><ellipse cx="319.2" cy="357.39" rx="215.65" ry="8.57"/><path d="M463.94,335.6l-.47-27.11L454,304v11.32c-71.19-79.21-131.54-198.5-131.54-198.5l8-16.5-6.6-3.3-4.71,10.28L314.48,97l-6.6,3.3,8,16.5s-60.35,119.29-131.55,198.5V304l-9.43,4.48-.47,27.11h9.9v-8.49l85.34-115L192.37,335.6l77.32,7.07L255.55,315.8l36.3-50-33,50.45,13.67,24.52,46.68-109.7,46.67,109.7,13.68-24.52-33-50.45,36.31,50L368.7,342.67,446,335.6,368.7,212.07l85.34,115v8.49Z"/></g></g></svg>