<svg xmlns="http://www.w3.org/2000/svg" viewBox="0 0 764.18 764.19"><defs><style>.cls-1{fill:none;}.cls-2{fill:#efeeee;}</style></defs><g id="Capa_2" data-name="Capa 2"><g id="Layer_1" data-name="Layer 1"><rect class="cls-1" width="764.18" height="764.19"/><path class="cls-2" d="M449.29,293.64H449a4.63,4.63,0,0,1-4.29-4.95c1.26-17.83-.33-34.92-4.6-49.8-15.95,9.86-34.69,24.6-48.42,50.51a4.62,4.62,0,1,1-8.17-4.33c16.27-30.74,39-46.7,56.9-57.16a4.61,4.61,0,0,1,6.71,2.49c6,17.26,8.32,37.64,6.82,58.95A4.63,4.63,0,0,1,449.29,293.64Z"/><path class="cls-2" d="M390.52,397.26a4.63,4.63,0,0,1-.4-9.24c31.59-2.77,65.52-19.94,93.07-47.09,25.77-25.41,43.6-57.91,48.5-88.05-29.28,4.29-61.69,21.72-87.81,47.49-18,17.71-32,38.43-40.42,59.9a4.63,4.63,0,1,1-8.61-3.39c8.93-22.67,23.64-44.48,42.54-63.1,29.78-29.38,66-47.89,99.29-50.79a4.62,4.62,0,0,1,5,5.11c-3.66,33.76-23.1,70.93-52,99.42-29.06,28.64-65.05,46.75-98.75,49.73Z"/><path class="cls-2" d="M361.27,514a4.6,4.6,0,0,1-3.85-2.07l-35.65-53.45H176.19a4.63,4.63,0,0,1,0-9.26H324.25a4.64,4.64,0,0,1,3.85,2.06l34.45,51.67L442,450a4.7,4.7,0,0,1,2.57-.78H592.61a4.63,4.63,0,1,1,0,9.26H446l-82.11,54.74A4.71,4.71,0,0,1,361.27,514Z"/><path class="cls-2" d="M370.52,467.69a4.63,4.63,0,0,1-4.63-4.42c-1.58-35.85,19.77-71.53,20.67-73a4.63,4.63,0,1,1,7.92,4.79c-.27.47-20.8,34.89-19.34,67.84a4.62,4.62,0,0,1-4.42,4.82Z"/><path class="cls-2" d="M416.79,421.42h-37a4.63,4.63,0,1,1,0-9.26h37a4.63,4.63,0,0,1,0,9.26Z"/><path class="cls-2" d="M555.59,504.7H435.29a4.63,4.63,0,1,1,0-9.25h120.3a4.63,4.63,0,1,1,0,9.25Z"/><path class="cls-2" d="M287.23,495.45H204a4.63,4.63,0,1,1,0-9.26h83.27a4.63,4.63,0,0,1,0,9.26Z"/><path class="cls-2" d="M370.52,551H278a4.63,4.63,0,0,1,0-9.26h92.54a4.63,4.63,0,0,1,0,9.26Z"/><path class="cls-2" d="M463.05,541.71H435.29a4.63,4.63,0,1,1,0-9.25h27.76a4.63,4.63,0,1,1,0,9.25Z"/><path class="cls-2" d="M481.57,578.73H426a4.63,4.63,0,1,1,0-9.25h55.53a4.63,4.63,0,0,1,0,9.25Z"/><path class="cls-2" d="M546.34,551h-37a4.63,4.63,0,0,1,0-9.26h37a4.63,4.63,0,0,1,0,9.26Z"/><path class="cls-2" d="M278,578.73H241a4.63,4.63,0,0,1,0-9.25h37a4.63,4.63,0,1,1,0,9.25Z"/><path class="cls-2" d="M241,541.71H213.21a4.63,4.63,0,1,1,0-9.25H241a4.63,4.63,0,1,1,0,9.25Z"/><path class="cls-2" d="M194.7,569.48H176.19a4.63,4.63,0,0,1,0-9.25H194.7a4.63,4.63,0,0,1,0,9.25Z"/><path class="cls-2" d="M250.23,375.15A23.13,23.13,0,1,1,273.36,352,23.16,23.16,0,0,1,250.23,375.15Zm0-37A13.88,13.88,0,1,0,264.1,352,13.9,13.9,0,0,0,250.23,338.14Z"/><path class="cls-2" d="M532.46,421.42A18.51,18.51,0,1,1,551,402.92,18.52,18.52,0,0,1,532.46,421.42Zm0-27.76a9.25,9.25,0,1,0,9.25,9.25A9.25,9.25,0,0,0,532.46,393.66Z"/><path class="cls-2" d="M291.86,227.09a27.76,27.76,0,1,1,27.76-27.76A27.79,27.79,0,0,1,291.86,227.09Zm0-46.27a18.51,18.51,0,1,0,18.51,18.51A18.52,18.52,0,0,0,291.86,180.82Z"/><path class="cls-2" d="M475.24,212.74h0a9.27,9.27,0,0,1-11.71-5.85h0a9.26,9.26,0,0,1,5.86-11.71h0A9.25,9.25,0,0,1,481.08,201h0A9.26,9.26,0,0,1,475.24,212.74Z"/><path class="cls-2" d="M558.52,342.29h0a9.27,9.27,0,0,1-11.71-5.86h0a9.26,9.26,0,0,1,5.86-11.7h0a9.26,9.26,0,0,1,11.7,5.85h0A9.27,9.27,0,0,1,558.52,342.29Z"/><path class="cls-2" d="M586.28,508.85h0a9.23,9.23,0,0,1-11.7-5.85h0a9.25,9.25,0,0,1,5.85-11.71h0a9.27,9.27,0,0,1,11.71,5.86h0A9.26,9.26,0,0,1,586.28,508.85Z"/><path class="cls-2" d="M410.46,545.87h0a9.26,9.26,0,0,1-11.7-5.85h0a9.25,9.25,0,0,1,5.85-11.71h0a9.25,9.25,0,0,1,11.7,5.86h0A9.25,9.25,0,0,1,410.46,545.87Z"/><path class="cls-2" d="M354.93,592.14h0a9.25,9.25,0,0,1-11.69-5.85h0a9.24,9.24,0,0,1,5.84-11.71h0a9.26,9.26,0,0,1,11.71,5.86h0A9.24,9.24,0,0,1,354.93,592.14Z"/><path class="cls-2" d="M179.11,545.87h0a9.26,9.26,0,0,1-11.7-5.86h0a9.26,9.26,0,0,1,5.85-11.7h0A9.27,9.27,0,0,1,185,534.16h0A9.27,9.27,0,0,1,179.11,545.87Z"/><path class="cls-2" d="M305.75,407.54h0A9.25,9.25,0,0,1,294,401.69h0A9.25,9.25,0,0,1,299.89,390h0a9.24,9.24,0,0,1,11.7,5.86h0A9.25,9.25,0,0,1,305.75,407.54Z"/><path class="cls-2" d="M188.36,397.81h0a9.26,9.26,0,0,1-11.7-5.86h0a9.26,9.26,0,0,1,5.85-11.7h0a9.25,9.25,0,0,1,11.71,5.85h0A9.26,9.26,0,0,1,188.36,397.81Z"/><path class="cls-2" d="M197.62,296h0a9.24,9.24,0,0,1-11.7-5.85h0a9.24,9.24,0,0,1,5.86-11.7h0a9.24,9.24,0,0,1,11.69,5.86h0A9.24,9.24,0,0,1,197.62,296Z"/><path class="cls-2" d="M262.41,256.08h0a9.26,9.26,0,0,1-11.71-5.85h0a9.25,9.25,0,0,1,5.85-11.71h0a9.26,9.26,0,0,1,11.71,5.85h0A9.27,9.27,0,0,1,262.41,256.08Z"/><path class="cls-2" d="M390.53,397.26a4.66,4.66,0,0,1-2.68-.85c-22-15.58-39.39-42.48-47.82-73.83-8.39-31.13-6.79-64.46,4.29-89.15a4.63,4.63,0,0,1,6.9-1.88C373,247,390.37,274.24,399,306.32c8.43,31.32,6.89,63.48-4.22,88.21a4.68,4.68,0,0,1-3,2.57A5.11,5.11,0,0,1,390.53,397.26Zm-40-154.58c-8.16,22.16-8.81,50.63-1.57,77.5s21.54,50.39,39.58,65.12c8.18-22,8.78-49.55,1.5-76.57C382.73,281.5,368.17,257.29,350.53,242.68Z"/></g></g></svg>