<svg xmlns="http://www.w3.org/2000/svg" viewBox="0 0 764.18 764.18"><defs><style>.cls-1{fill:none;}.cls-2{fill:#efeeee;}</style></defs><g id="Capa_2" data-name="Capa 2"><g id="Layer_1" data-name="Layer 1"><rect class="cls-1" width="764.18" height="764.18"/><path class="cls-2" d="M573.36,455H190.82a22.79,22.79,0,0,1-22.77-22.77V286.45a22.8,22.8,0,0,1,22.77-22.77H573.36a22.79,22.79,0,0,1,22.76,22.77V432.18A22.79,22.79,0,0,1,573.36,455ZM190.82,272.79a13.68,13.68,0,0,0-13.66,13.66V432.19a13.67,13.67,0,0,0,13.66,13.65H573.36A13.67,13.67,0,0,0,587,432.19V286.45a13.68,13.68,0,0,0-13.66-13.66Z"/><rect class="cls-2" x="209.04" y="295.56" width="18.22" height="18.22"/><rect class="cls-2" x="245.47" y="295.56" width="18.21" height="18.22"/><rect class="cls-2" x="281.9" y="295.56" width="18.22" height="18.22"/><rect class="cls-2" x="318.33" y="295.56" width="18.22" height="18.22"/><rect class="cls-2" x="354.76" y="295.56" width="18.22" height="18.22"/><rect class="cls-2" x="391.2" y="295.56" width="18.2" height="18.22"/><rect class="cls-2" x="427.62" y="295.56" width="18.23" height="18.22"/><rect class="cls-2" x="464.05" y="295.56" width="18.23" height="18.22"/><rect class="cls-2" x="500.49" y="295.56" width="18.22" height="18.22"/><rect class="cls-2" x="536.92" y="295.56" width="18.22" height="18.22"/><rect class="cls-2" x="209.04" y="332" width="18.22" height="18.22"/><rect class="cls-2" x="245.47" y="332" width="18.21" height="18.22"/><rect class="cls-2" x="281.9" y="332" width="18.22" height="18.22"/><rect class="cls-2" x="318.33" y="332" width="18.22" height="18.22"/><rect class="cls-2" x="354.76" y="332" width="18.22" height="18.22"/><rect class="cls-2" x="391.2" y="332" width="18.2" height="18.22"/><rect class="cls-2" x="427.62" y="332" width="18.23" height="18.22"/><rect class="cls-2" x="464.05" y="332" width="18.23" height="18.22"/><rect class="cls-2" x="500.49" y="332" width="18.22" height="18.22"/><rect class="cls-2" x="536.92" y="332" width="18.22" height="18.22"/><rect class="cls-2" x="209.04" y="368.43" width="18.22" height="18.22"/><rect class="cls-2" x="245.47" y="368.43" width="18.21" height="18.22"/><rect class="cls-2" x="281.9" y="368.43" width="18.22" height="18.22"/><rect class="cls-2" x="318.33" y="368.43" width="18.22" height="18.22"/><rect class="cls-2" x="354.76" y="368.43" width="18.22" height="18.22"/><rect class="cls-2" x="391.2" y="368.43" width="18.2" height="18.22"/><rect class="cls-2" x="427.62" y="368.43" width="18.23" height="18.22"/><rect class="cls-2" x="464.05" y="368.43" width="18.23" height="18.22"/><rect class="cls-2" x="500.49" y="368.43" width="18.22" height="18.22"/><rect class="cls-2" x="536.92" y="368.43" width="18.22" height="18.22"/><rect class="cls-2" x="209.04" y="404.86" width="18.22" height="18.22"/><rect class="cls-2" x="245.47" y="404.86" width="18.21" height="18.22"/><rect class="cls-2" x="281.9" y="404.86" width="18.22" height="18.22"/><rect class="cls-2" x="318.33" y="404.86" width="163.95" height="18.22"/><rect class="cls-2" x="500.49" y="404.86" width="18.22" height="18.22"/><rect class="cls-2" x="536.92" y="404.86" width="18.22" height="18.22"/><path class="cls-2" d="M382.08,272.79a4.55,4.55,0,0,1-4.55-4.55V231.81a4.56,4.56,0,0,1,4.55-4.56h63.77a13.66,13.66,0,0,0,0-27.32H336.54a4.56,4.56,0,0,1-4.55-4.56V168.05a4.56,4.56,0,0,1,9.11,0v22.77H445.85a22.77,22.77,0,0,1,0,45.54H386.64v31.88A4.56,4.56,0,0,1,382.08,272.79Z"/><path class="cls-2" d="M363.87,600.68H336.54a4.56,4.56,0,0,1-4.55-4.56V541.48a4.56,4.56,0,0,1,4.55-4.56h27.33a4.55,4.55,0,0,1,4.55,4.56v54.64A4.55,4.55,0,0,1,363.87,600.68Zm-22.77-9.11h18.21V546H341.1Z"/><path class="cls-2" d="M336.54,600.68H309.22a4.55,4.55,0,0,1-4.55-4.56v-82a4.55,4.55,0,0,1,4.55-4.55h27.32a4.56,4.56,0,0,1,4.56,4.55v82A4.56,4.56,0,0,1,336.54,600.68Zm-22.77-9.11H332V518.71H313.77Z"/><path class="cls-2" d="M309.22,600.68H281.9a4.56,4.56,0,0,1-4.56-4.56V523.26a4.55,4.55,0,0,1,4.56-4.55h27.32a4.54,4.54,0,0,1,4.55,4.55v72.86A4.55,4.55,0,0,1,309.22,600.68Zm-22.77-9.11h18.22V527.82H286.45Z"/><path class="cls-2" d="M281.9,600.68H254.57a4.56,4.56,0,0,1-4.55-4.56V532.37a4.55,4.55,0,0,1,4.55-4.55H281.9a4.54,4.54,0,0,1,4.55,4.55v63.75A4.55,4.55,0,0,1,281.9,600.68Zm-22.77-9.11h18.21V536.92H259.13Z"/><path class="cls-2" d="M427.62,573.36H400.3a4.56,4.56,0,0,1-4.56-4.56V514.15a4.56,4.56,0,0,1,4.56-4.55h27.32a4.55,4.55,0,0,1,4.55,4.55V568.8A4.55,4.55,0,0,1,427.62,573.36Zm-22.77-9.11h18.22V518.71H404.85Z"/><path class="cls-2" d="M454.94,573.36H427.62a4.55,4.55,0,0,1-4.55-4.56v-82a4.55,4.55,0,0,1,4.55-4.56h27.32a4.56,4.56,0,0,1,4.56,4.56v82A4.56,4.56,0,0,1,454.94,573.36Zm-22.77-9.11h18.22V491.39H432.17Z"/><path class="cls-2" d="M482.28,573.36H454.94a4.56,4.56,0,0,1-4.55-4.56V495.94a4.55,4.55,0,0,1,4.55-4.55h27.34a4.55,4.55,0,0,1,4.55,4.55V568.8A4.56,4.56,0,0,1,482.28,573.36Zm-22.78-9.11h18.21V500.49H459.5Z"/><path class="cls-2" d="M509.6,573.36H482.28a4.57,4.57,0,0,1-4.57-4.56V505a4.56,4.56,0,0,1,4.57-4.55H509.6a4.55,4.55,0,0,1,4.55,4.55V568.8A4.56,4.56,0,0,1,509.6,573.36Zm-22.77-9.11h18.22V509.6H486.83Z"/></g></g></svg>